<svg xmlns="http://www.w3.org/2000/svg" xmlns:xlink="http://www.w3.org/1999/xlink" version="1" width="1310" height="1200" id="SELLO DEL ESTADO"><path d="m118.18 382.57-9.99 18.71-45.44 6.24a129.11 129.11 0 0 1-2.18 4.34c-.24.45-.5.93-.8 1.44a62.32 62.32 0 0 1-.93 1.56l20.36 10.87c4.41 2.35 7.41 3.33 9 2.94 2.21-.5 4.02-2.06 5.41-4.68l1.47-2.74 1.9 1.02-16.02 30.03-1.91-1.02 1.4-2.64c1.59-2.96 1.75-5.6.5-7.9-.68-1.3-3.02-3-7.02-5.14l-45.28-24.17c-4.41-2.35-7.4-3.33-9-2.94-2.22.54-4.05 2.13-5.47 4.79l-1.4 2.63-1.92-1.02 13.63-25.54c3.98-7.44 7.45-12.64 10.42-15.6a21.35 21.35 0 0 1 10.8-5.78c4.22-.91 8.35-.3 12.38 1.86 4.31 2.3 7.3 5.7 8.97 10.2 1.67 4.5 1.6 10.05-.24 16.64l27.83-3.74c6.38-.85 10.97-2.05 13.75-3.62 2.79-1.57 5.4-4.16 7.86-7.76zm-62.6 30.55a56 56 0 0 1 .94-1.7c.27-.47.5-.86.66-1.17 3.56-6.68 4.8-12.5 3.72-17.44a15.75 15.75 0 0 0-8.34-11c-4.38-2.33-8.67-2.86-12.87-1.58-4.2 1.28-7.5 4.17-9.92 8.69-1.06 2-2.18 4.88-3.35 8.64zm21.08-101.76 25.44 18.42 10.24-14.15c2.66-3.67 3.88-6.52 3.66-8.56-.26-2.7-2.16-5.47-5.7-8.32l1.28-1.75 22.4 16.21-1.27 1.76c-3.45-1.83-5.78-2.84-6.99-3.04a7.34 7.34 0 0 0-4.64.92c-1.57.84-3.33 2.6-5.27 5.29l-10.24 14.15 21.22 15.35c2.84 2.06 4.67 3.19 5.47 3.38.8.2 1.61.1 2.43-.26.82-.37 1.88-1.44 3.16-3.21l7.9-10.92c2.63-3.64 4.3-6.47 4.98-8.48.68-2.01.83-4.31.44-6.9-.54-3.4-2.04-7.54-4.51-12.46l1.37-1.9 12.12 17.23-35.9 49.6-1.75-1.26 1.65-2.28a11.14 11.14 0 0 0 2.03-5.11 4.93 4.93 0 0 0-.78-3.72c-.75-1.1-2.7-2.77-5.83-5.04l-41.82-30.27c-4.08-2.95-6.89-4.36-8.44-4.22-2.09.22-4.1 1.66-6.02 4.32l-1.65 2.28-1.75-1.28 35.9-49.6 14.61 9.5-1.34 1.84c-3.87-1.78-6.73-2.73-8.57-2.84a9.36 9.36 0 0 0-5.5 1.49c-1.38.92-3.24 2.98-5.55 6.18zm84.52-45.13 16.92 15.8c3.66 3.4 6.3 5.13 7.93 5.16 2.27.08 4.43-.97 6.48-3.17l2.08-2.23 1.59 1.48-23.23 24.89-1.59-1.48 2.04-2.19c2.3-2.45 3.13-4.95 2.52-7.5-.35-1.4-2.18-3.65-5.5-6.74l-37.52-35.02c-3.65-3.41-6.28-5.15-7.89-5.2-2.3-.06-4.47 1-6.52 3.2l-2.04 2.19-1.58-1.48 19.87-21.29c4.85-5.2 9.2-8.8 13.08-10.8 3.87-1.99 8.03-2.83 12.5-2.51 4.45.31 8.43 2.1 11.91 5.35 4.74 4.42 7.14 9.58 7.19 15.48.05 5.9-2.6 11.7-7.92 17.42a51.19 51.19 0 0 1-4.54 4.26 80.92 80.92 0 0 1-5.78 4.38zm-2.44-2.27a86.71 86.71 0 0 0 4.4-3.43 34.74 34.74 0 0 0 3.01-2.8c2.78-2.97 4.02-6.6 3.73-10.9-.28-4.3-2.25-8.16-5.9-11.58a21.98 21.98 0 0 0-8.45-5 14.57 14.57 0 0 0-8.92-.14 17.5 17.5 0 0 0-7.6 4.92 34.68 34.68 0 0 0-4.43 6.38zm60.17-106.01-1.37-1.68 21.79-17.78 1.37 1.68-2.31 1.89a8.07 8.07 0 0 0-3.1 7.6c.12 1.46 1.58 3.9 4.37 7.31l20.37 24.97c5.04 6.18 8.34 11.47 9.89 15.87 1.55 4.4 1.53 9.3-.07 14.66-1.6 5.36-5.49 10.56-11.66 15.6-6.72 5.48-12.77 8.47-18.15 8.98-5.39.51-10.4-.6-15.07-3.36-3.17-1.9-7.78-6.56-13.83-13.98l-19.63-24.06c-3.08-3.78-5.63-5.84-7.64-6.17-2-.33-4.17.46-6.5 2.36l-2.32 1.89-1.37-1.68 26.6-21.7 1.37 1.68-2.36 1.92c-2.54 2.08-3.7 4.36-3.48 6.85.13 1.7 1.6 4.29 4.42 7.74l21.89 26.83a76.63 76.63 0 0 0 7.36 7.68c2.96 2.73 5.72 4.49 8.28 5.28 2.55.78 5.37.85 8.45.2 3.08-.64 6.19-2.24 9.34-4.81a28.36 28.36 0 0 0 8.65-11.45c1.75-4.35 2.09-8.37 1.02-12.06-1.07-3.69-4.27-8.8-9.6-15.34l-20.34-24.93c-3.14-3.84-5.52-5.9-7.16-6.18-2.27-.37-4.57.4-6.9 2.3zm-18.47-21.15-.61 26.59-1.55 1.26-8.01-19.56zm124.99-6.09c5.33-1.81 9.83-2.3 13.5-1.5a17.47 17.47 0 0 1 11.63 8.43 19.63 19.63 0 0 1 2.58 11.66c-.3 4.38-1.9 8.4-4.79 12.05-2.89 3.66-8.18 7.78-15.86 12.35l-32.22 19.2-1.1-1.87 2.56-1.53c2.85-1.7 4.36-3.82 4.52-6.37.07-1.64-1.03-4.37-3.31-8.2l-26.27-44.09c-2.52-4.23-4.6-6.6-6.23-7.13-2.19-.7-4.57-.28-7.16 1.26l-2.56 1.53-1.11-1.86 29.5-17.58c5.5-3.27 10.15-5.5 13.95-6.67 5.76-1.8 10.87-1.94 15.35-.45a18.33 18.33 0 0 1 10.3 8.22 17.06 17.06 0 0 1 2.35 11.05c-.48 3.94-2.35 7.78-5.63 11.5zm-28 13c1.38-.5 2.9-1.17 4.57-2a83.74 83.74 0 0 0 5.37-2.96c4.9-2.92 8.26-5.65 10.1-8.17a13.79 13.79 0 0 0 2.77-8.23c0-2.96-.76-5.74-2.3-8.32-2.38-4-6.03-6.43-10.97-7.31-4.93-.88-10.52.54-16.76 4.26-3.36 2-6.16 4.16-8.4 6.5zm19.43 32.62a59.1 59.1 0 0 0 12.34-5.51c6.07-3.62 9.89-7.75 11.45-12.38 1.56-4.63 1.14-8.96-1.26-13a17.31 17.31 0 0 0-6.72-6.35c-2.9-1.6-6.4-2.12-10.5-1.6-4.1.54-8.54 2.23-13.34 5.09a140.1 140.1 0 0 0-5.28 3.28 31.57 31.57 0 0 0-3.36 2.48zm113.66-74.46 1.94-.37 2.15 22.5-56.65 24-.85-2 2.75-1.17c3.1-1.31 4.88-3.25 5.36-5.83.27-1.47-.48-4.3-2.25-8.47l-20-47.2c-1.92-4.58-3.64-7.22-5.13-7.95-2.08-.99-4.5-.9-7.27.28l-2.75 1.16-.85-2L380.1 60.8l.85 2c-3.9 1.6-6.47 3.12-7.72 4.54-1.24 1.41-1.91 2.82-2 4.22-.09 1.39.8 4.26 2.63 8.62l19.47 45.97c1.26 2.98 2.42 4.91 3.47 5.78.75.57 1.65.85 2.7.83 1.05-.02 3.94-1.03 8.65-3.03l5.34-2.26c5.61-2.37 9.38-4.46 11.29-6.24a16.7 16.7 0 0 0 4.34-7.03c.98-2.9 1.45-7 1.4-12.33zm55.51 3.57.63 2.07-32.55 9.96-.63-2.07 2.69-.83c3.13-.96 5.13-2.57 6-4.83.52-1.47.1-4.49-1.3-9.04l-15.02-49.08c-1.18-3.85-2.2-6.32-3.06-7.4a5.28 5.28 0 0 0-3.04-1.7 11.1 11.1 0 0 0-5.56.22l-2.7.83-.63-2.08 32.56-9.96.63 2.08-2.74.84c-3.1.95-5.08 2.55-5.94 4.82-.57 1.48-.16 4.5 1.24 9.05l15.01 49.09c1.18 3.84 2.2 6.3 3.06 7.4a5.25 5.25 0 0 0 3.1 1.68c1.88.4 3.71.34 5.5-.21zm67.19-95.2 6.82 26.2-1.78.33c-3.9-7.49-8.37-12.56-13.45-15.22-5.08-2.65-10.7-3.4-16.88-2.22a26.32 26.32 0 0 0-13.3 6.61c-3.68 3.43-6.18 8.25-7.48 14.46-1.3 6.21-1.15 13.6.48 22.15 1.34 7.06 3.63 12.97 6.88 17.72A25.9 25.9 0 0 0 527 90.25c5.08 1.9 10.53 2.29 16.36 1.18 5.07-.96 9.33-2.9 12.8-5.8 3.46-2.9 6.9-8.02 10.32-15.35l2 .81c-2.6 7.7-6.2 13.65-10.8 17.86-4.6 4.22-10.5 7-17.67 8.37-12.94 2.45-23.86-.44-32.79-8.68-6.65-6.14-10.9-14.04-12.73-23.71a45.57 45.57 0 0 1 1.16-22.47 38.58 38.58 0 0 1 11.54-17.9 39.67 39.67 0 0 1 19.04-9.2 37.42 37.42 0 0 1 17.48.98c1.77.54 3 .74 3.7.6a3.87 3.87 0 0 0 2.5-1.6 9.15 9.15 0 0 0 1.3-4.72zm86.16 48.24-30.73 1.26-4.87 12.74c-1.2 3.14-1.77 5.47-1.71 7 .05 1.2.66 2.24 1.85 3.11 1.2.87 3.7 1.37 7.54 1.48l.09 2.17-25 1.02-.09-2.16c3.3-.72 5.41-1.57 6.35-2.55 1.91-1.96 3.96-5.85 6.15-11.69L624.22 4.4l2.04-.09 30.34 64.91c2.44 5.22 4.6 8.58 6.48 10.09 1.88 1.5 4.44 2.29 7.69 2.35l.09 2.17-31.33 1.28-.08-2.17c3.15-.28 5.27-.9 6.34-1.84a4.08 4.08 0 0 0 1.54-3.35c-.07-1.72-.96-4.4-2.68-8.04zm-1.81-4.27-14.78-31.53-12.5 32.65zm93.6 33.98.4-2.13 2.94.55c3.3.62 5.84 0 7.62-1.85 1.08-1.1 2.03-3.87 2.86-8.28l9.46-50.45c.92-4.88.95-8.03.1-9.46-1.17-1.97-3.24-3.23-6.2-3.79l-2.94-.55.4-2.13 31.8 5.96c11.66 2.2 20.3 5.18 25.88 8.97 5.6 3.8 9.66 9.12 12.2 16 2.55 6.88 3.06 14.37 1.54 22.47-2.03 10.86-7.04 19.32-15 25.38-8.95 6.75-21 8.7-36.16 5.86zm23.35-1.46c4.67 1.99 8.66 3.3 11.96 3.91 8.9 1.67 16.88-.07 23.93-5.23 7.05-5.15 11.58-13.09 13.59-23.8 2.02-10.79.68-19.84-4.03-27.16-4.7-7.33-11.67-11.85-20.88-13.58-3.46-.65-7.5-.83-12.12-.54zM871.3 43.6l-10.12 29.73 16.53 5.63c4.29 1.46 7.38 1.79 9.26.98 2.5-1.04 4.6-3.67 6.27-7.89l2.06.7-8.91 26.18-2.06-.7c.73-3.83 1.01-6.36.85-7.57a7.33 7.33 0 0 0-2.24-4.16c-1.26-1.26-3.47-2.42-6.6-3.5L859.8 77.4l-8.44 24.8c-1.13 3.32-1.67 5.4-1.62 6.22.05.82.37 1.57.97 2.25.6.68 1.93 1.37 4 2.07l12.75 4.34c4.26 1.45 7.44 2.2 9.57 2.27 2.12.06 4.37-.47 6.74-1.6 3.07-1.52 6.6-4.18 10.57-7.98l2.22.75-12.9 16.65-57.97-19.72.7-2.06 2.66.9a11.15 11.15 0 0 0 5.48.45c1.38-.19 2.49-.8 3.32-1.84.83-1.04 1.86-3.39 3.1-7.05l16.64-48.87c1.62-4.77 2.14-7.87 1.56-9.3-.83-1.94-2.8-3.44-5.9-4.5l-2.66-.9.7-2.05 57.96 19.73-4.77 16.75-2.17-.73c.57-4.22.64-7.23.2-9.03a9.36 9.36 0 0 0-3.04-4.81c-1.29-1.06-3.8-2.23-7.54-3.5zm101.25 100.95 1.55 1.23-15.65 16.3-55.15-27.27.97-1.95 2.67 1.33c3.01 1.49 5.65 1.57 7.92.25 1.29-.75 2.94-3.16 4.95-7.22l22.73-45.96c2.2-4.44 3.09-7.47 2.66-9.08-.6-2.21-2.25-3.99-4.95-5.32l-2.67-1.33.96-1.94 32.24 15.96-.96 1.94c-3.76-1.9-6.59-2.87-8.47-2.89-1.9-.02-3.4.4-4.5 1.24-1.12.84-2.73 3.38-4.82 7.62l-22.14 44.74c-1.44 2.91-2.14 5.04-2.12 6.4.05.95.43 1.81 1.14 2.6.7.78 3.34 2.3 7.93 4.58l5.2 2.57c5.46 2.7 9.5 4.2 12.1 4.48 2.6.29 5.32-.14 8.15-1.3 2.84-1.14 6.26-3.47 10.26-6.98zm84 37.49-14.18 18.29c-3.07 3.95-4.54 6.74-4.42 8.37.12 2.26 1.37 4.32 3.75 6.16l2.4 1.87-1.32 1.71-26.9-20.86 1.32-1.71 2.37 1.83c2.65 2.06 5.22 2.67 7.7 1.82 1.36-.48 3.43-2.5 6.2-6.09l31.45-40.56c3.07-3.95 4.55-6.73 4.46-8.33-.15-2.3-1.41-4.36-3.79-6.2l-2.36-1.83 1.33-1.72 23.01 17.84c5.62 4.36 9.6 8.37 11.95 12.04a23.15 23.15 0 0 1 3.65 12.22c.1 4.47-1.32 8.59-4.24 12.35-3.97 5.13-8.9 7.98-14.76 8.57-5.87.6-11.9-1.5-18.07-6.3a51.2 51.2 0 0 1-4.66-4.12 80.92 80.92 0 0 1-4.9-5.35zm2.04-2.64a86.72 86.72 0 0 0 3.82 4.07 34.78 34.78 0 0 0 3.06 2.74c3.21 2.5 6.95 3.4 11.2 2.72 4.26-.68 7.92-3 10.98-6.95 2.11-2.71 3.51-5.67 4.2-8.86.7-3.2.48-6.16-.66-8.9-1.14-2.73-3-5.1-5.6-7.12a34.72 34.72 0 0 0-6.75-3.82zm86.05 28.08-22.17 22.24 12.36 12.33c3.2 3.2 5.84 4.85 7.88 4.96 2.7.16 5.74-1.28 9.1-4.32l1.54 1.53-19.52 19.58-1.54-1.53c2.34-3.12 3.7-5.27 4.1-6.43a7.33 7.33 0 0 0-.18-4.72c-.58-1.68-2.05-3.7-4.4-6.04l-12.36-12.33-18.5 18.54c-2.48 2.5-3.88 4.12-4.2 4.88a3.67 3.67 0 0 0-.12 2.44c.24.87 1.13 2.08 2.68 3.63l9.54 9.51c3.19 3.17 5.72 5.25 7.6 6.25 1.87.99 4.13 1.5 6.75 1.52 3.43 0 7.76-.84 13-2.5l1.67 1.65-18.92 9.27-43.36-43.24 1.53-1.53 1.99 1.98a11.14 11.14 0 0 0 4.73 2.81c1.32.44 2.59.38 3.79-.19 1.2-.57 3.16-2.22 5.9-4.96l36.44-36.55c3.56-3.57 5.4-6.13 5.5-7.68.1-2.1-1-4.3-3.32-6.62l-2-1.99 1.54-1.53 43.36 43.23-11.67 12.95-1.62-1.62c2.37-3.54 3.76-6.21 4.16-8.02.4-1.81.19-3.7-.61-5.65-.7-1.52-2.44-3.67-5.23-6.46zm36.53 158.53-12.86-16.87 13.24-43.91a129.05 129.05 0 0 1-3.04-3.8 49.16 49.16 0 0 1-.97-1.32 62.4 62.4 0 0 1-1.03-1.5l-18.36 14c-3.98 3.03-6.11 5.35-6.41 6.95-.47 2.22.2 4.51 2 6.87l1.88 2.47-1.73 1.32-20.63-27.08 1.72-1.3 1.81 2.37c2.04 2.67 4.36 3.92 6.98 3.74 1.46-.08 4-1.5 7.6-4.24l40.82-31.12c3.97-3.03 6.11-5.35 6.41-6.95.44-2.26-.25-4.58-2.07-6.97l-1.81-2.38 1.72-1.31L1214 278c5.12 6.7 8.4 12.03 9.85 15.96 1.45 3.93 1.7 8 .77 12.23a17.68 17.68 0 0 1-6.85 10.49 18.55 18.55 0 0 1-13 3.9c-4.8-.35-9.8-2.73-15.03-7.14l-8.18 26.86c-1.9 6.16-2.7 10.83-2.44 14.02.27 3.18 1.53 6.64 3.79 10.37zm-1.72-69.64c.45.6.83 1.11 1.14 1.56l.8 1.09c4.6 6.03 9.36 9.57 14.3 10.64 4.94 1.08 9.43.07 13.47-3 3.95-3.01 6.21-6.7 6.8-11.05.59-4.35-.67-8.56-3.77-12.63a51.69 51.69 0 0 0-6.46-6.64zm101.9 89.56 1.9-1.05 13.59 24.63-1.9 1.05-1.44-2.62a8.07 8.07 0 0 0-6.92-4.42c-1.46-.13-4.12.87-7.98 3l-28.22 15.57c-6.98 3.85-12.77 6.14-17.38 6.88-4.62.73-9.42-.16-14.4-2.7-5-2.53-9.41-7.29-13.26-14.27-4.2-7.59-6.05-14.08-5.6-19.47a24.43 24.43 0 0 1 6.02-14.22c2.44-2.77 7.85-6.47 16.23-11.09l27.19-15c4.27-2.36 6.75-4.5 7.44-6.41.68-1.92.3-4.2-1.16-6.83l-1.44-2.61 1.9-1.05 16.58 30.07-1.9 1.04-1.47-2.66c-1.58-2.88-3.62-4.43-6.11-4.66-1.7-.18-4.5.81-8.4 2.96l-30.33 16.73a76.37 76.37 0 0 0-8.87 5.86c-3.22 2.42-5.44 4.82-6.68 7.2a16.73 16.73 0 0 0-1.72 8.27c.08 3.15 1.1 6.5 3.07 10.06 2.5 4.55 5.74 8.07 9.7 10.57s7.87 3.55 11.69 3.16c3.82-.4 9.43-2.63 16.81-6.7l28.17-15.54c4.35-2.4 6.8-4.38 7.37-5.94.77-2.16.42-4.56-1.03-7.2zm24.13-14.38-26.05-5.37-.96-1.74 20.67-4.38z"/><g transform="translate(235 235)" stroke="#000" stroke-width=".5"><use transform="matrix(-1 0 0 1 840 0)" width="800" height="935" xlink:href="#a"/><g id="a" stroke="#000" stroke-width="1"><path d="m420 807 207.08-486.31 174.16-148.76-6.22 508.77C793.65 792.88 690.82 963.36 420 807z" fill="#d91023"/><path d="M797.43 484.19c-11.5 9.98-32.41 4.19-34.8 23.6-1.35 10.84-15.5 10.35-19.67 19.21-10.65 22.7-28.85 13.48-34.4 21.1-8.7 11.9-24.24 23.09-37 20.18-14.32-3.27-29.09 12.7-42.69 22.25-24.19 16.97-47.34 9.9-47.34 69.31 0 23.34-1.4 53.05 5.72 63.66 14.23 21.22 37.94 23.04 65.03 29.56 5.09 1.22 18.9.45 40.81 7.25 9.62 2.99 26.83 2.73 37.88 5.1 7.84 1.68 28.43 3.71 40.35 9.53 15.6-31.3 21.89-55.19 23.4-85.78h.03c.13-2.86.24-5.7.28-8.47l2.4-196.5z" fill="#fff"/><path d="M779 466.26c7.02 14.81 4.01 43.4 4.01 62.44 0 21.17 1 42.34 1 62.45m-30.07-102.67c15.04 19.05 10.03 79.38 10.03 106.9m-42.32-102.06c-4 17.99-11.03 48.68-3 65.62 1 2.11 2 12.7 2 16.93v18m15.02-101.54c2.01 14.81 1 33.87 1 48.68 0 6.36 4.02 15.88 4.02 22.23V577m-40.51-61.07-3.91 35.75c-1.16 10.51.68 21.4-.47 31.9-.46 4.22-3.3 20.92 4.02 18.61m-21.01-70.94c.77 10.4-1.03 22.08-3.44 32.4-.67 2-.18 10.04.1 12.4l-1.01 2.99c-.33.99 1.37 11.74 1.37 11.74l-.66 2c.55 4.7-1.8 11.68 2.92 13.44m99.69 94.25c-3.84 16.6-6.69 45.33-14.04 58.68-4.28 7.24-11.2 18-12.5 25.75-.23 1.3-4.5 8.53-5.72 9.66-1.2 1.12-2.4 2.24-3.4 2.07-.99-.17-4.4 1.9-3.74-1.96m17.58-121.27c-5.61 22.9-8.67 48.9-12.3 72.14-1.42 9.04-5.8 17.56-9.98 24.8-1.39 2.4-9.34 14.28-11.33 13.93m-11.45-98.5c-2.87 14.11-6.96 39.75-12.79 51.74-2.22 5.4-4.23 15.28-6.46 20.69-2.23 5.4-5.82 11.98-6.97 17.63-.87 4.23-2.59 12.7-4.53 16.7-.28 1.4-6.04 7.51-6.62 10.33-.29 1.41-3.3 5.17-2.44.94M692 693.35l-6.5 22.54c-2.33 8.06-10.05 16.14-12.37 24.19-2.78 9.66-10.04 16.13-12.36 24.18-1.86 6.44-6.8 18.93-9.13 26.98m78.17-87.36c-5.62 17.4-8.67 37.17-12.3 54.83-1.42 6.87-5.8 13.35-9.98 18.85-1.4 1.83-9.35 10.86-11.33 10.6" fill="none"/><path d="M435.6 820.26c0 8.13 14.12 35.77 24.5 63.7 1.07 2.92 3.08 6.73 1.31 9.4-10.33 15.6 8.16 25.72 8.16 25.72s3.01 3.63 3.78 6.7c1.92 7.67-5.99 6.12-12.43 5.97-6.83-.16 8.34 27.75 8.34 27.75s-50.9-1.32-51.5-23.1c0-9.55 11.43-14.6 10.05-22.06-.23-1.24-5.7.85-10.31-.47-4.62-1.32-5.14-6.2-5.05-7.87.13-2.3.15-4.27.48-6.2 1.02-6.06 23.14-24.27-2.32-27.66-1.88-.25-9.19 3.34-9.1 1.54.96-17.45 21.22-45.17 20.78-62.6-.16-6.36-1.77-6.7 3.55.83.9.84 5.32 9.19 9.76 8.35z" fill="#d91023"/><path d="M469.27 959.5s-47.08-4.55-48.6-16.95c-2.9-23.64 43.3-6.38 53.1-11.95 1.03-31.1-59.56-7.39-61.29-20.68-3.26-25.18 50.1-9.88 49.7-18.01-1.54-32.05-64.02-18.66-57.5-17.57" fill="none"/><g fill="#e7ca00"><path d="m800.13 166.88 3.8 4.62-230.06 189.4-3.8-4.62z" stroke-linecap="round" stroke-linejoin="round"/><path transform="matrix(.31127 .39988 -.79972 .62253 720.26 -178.07)" d="m640.49 100.18 24.67 24.67-24.67 24.67-24.67-24.67 24.67-24.67z" stroke-linecap="round" stroke-width="1.4"/><path transform="matrix(-3.2873 -1.0309 -1.0645 3.6188 2621.8 -1542.5)" d="m358.53 567.19 8.47 10.9-1.29-7.34-7.18-3.56z" stroke-linecap="round" stroke-width=".28"/><path transform="matrix(-3.2873 -1.0309 -1.0645 3.6188 2621.8 -1542.5)" d="M366.8 576.33c.81 0 1.48.64 1.48 1.42 0 .78-.66 1.42-1.48 1.42s-1.48-.64-1.48-1.42c0-.79.66-1.42 1.48-1.42z" stroke-width=".28"/></g></g><g id="b" stroke="#000" stroke-width=".5"><path d="M634.02 445.52h.8v19.86h-.8zm.81-.42h.8v19.85h-.8zm.82-.43h.8v19.86h-.8zm.81-.42h.8v19.86h-.8zm.81-.42h.8v19.85h-.8zm.82-.43h.8v19.86h-.8zm.81-.42h.8v19.86h-.8zm.82-.42h.8v19.85h-.8zm.81-.43h.8V462h-.8zm.81-.42h.8v19.86h-.8zm.82-.42h.8v19.85h-.8zm.81-.43h.8v19.86h-.8zm.81-.42h.8v19.86h-.8zm.82-.42h.8v19.85h-.8zm.81-.43h.8v19.86h-.8zm.82-.42h.8v19.86h-.8zm.81-.42h.8v19.85h-.8zm.81-.43h.8v19.86h-.8zm.82-.42h.8v19.86h-.8zm.81-.42h.8v19.85h-.8zm.81-.43h.8v19.86h-.8zm.82-.42h.8v19.86h-.8zm.81-.42h.8v19.85h-.8zm.82-.43h.8v19.86h-.8zm.81-.42h.8v19.86h-.8zm.81-.42h.8v19.85h-.8zm.82-.43h.8v19.86h-.8zm.81-.42h.8v19.86h-.8zm.81-.42h.8v19.85h-.8zm.82-.43h.8v19.86h-.8zm.81-.42h.8v19.86h-.8zm.82-.42h.8v19.85h-.8zm.81-.43h.8v19.86h-.8zm.81-.42h.8v19.86h-.8zm.82-.42h.8v19.85h-.8zm.81-.43h.8v19.86h-.8zm.81-.42h.8v19.86h-.8zm.82-.42h.8v19.85h-.8zm.81-.43h.8v19.86h-.8zm.82-.42h.8v19.86h-.8zm.81-.42h.8v19.85h-.8zm.81-.43h.8v19.86h-.8zm.82-.42h.8v19.86h-.8zm.81-.42h.8v19.85h-.8zm.82-.43h.8v19.86h-.8zm.8-.42h.8v19.86h-.8zm.82-.42h.8v19.85h-.8zm.82-.43h.8v19.86h-.8zm.81-.42h.8v19.86h-.8zm.81-.42h.8v19.85h-.8zm.82-.43h.8v19.86h-.8zm.81-.42h.8v19.86h-.8zm.82-.42h.8v19.85h-.8zm.8-.43h.8v19.86h-.8zm.82-.42h.8v19.86h-.8zm.82-.42h.8v19.85h-.8zm.81-.43h.8v19.86h-.8zm.81-.42h.8v19.86h-.8zm.82-.42h.8v19.85h-.8zm.81-.43h.8v19.86h-.8zm.82-.42h.8v19.86h-.8zm.81-.42h.8v19.85h-.8zm.81-.43h.8v19.86h-.8zm.82-.42h.8v19.86h-.8zm.81-.42h.8v19.85h-.8zm.81-.43h.8v19.86h-.8zm.82-.42h.8v19.86h-.8zm.81-.42h.8V437h-.8zm.82-.43h.8v19.86h-.8zm.81-.42h.8v19.86h-.8zm.81-.42h.8v19.85h-.8zm.82-.43h.8v19.86h-.8zm.81-.42h.8v19.86h-.8zm.81-.42h.8v19.85h-.8zm.82-.43h.8v19.86h-.8zm.81-.42h.8v19.86h-.8zm.82-.42h.8v19.85h-.8zm1.62-.85h.8v19.86h-.8zm.82-.42h.8v19.85h-.8zm.81-.43h.8v19.86h-.8zm.81-.42h.8v19.86h-.8zm.82-.42h.8v19.85h-.8zm.81-.43h.8v19.86h-.8zm.82-.42h.8v19.86h-.8zm.81-.42h.8v19.85h-.8zm.81-.43h.8v19.86h-.8zm.82-.42h.8v19.86h-.8zm.81-.42h.8v19.85h-.8zm.81-.43h.8v19.86h-.8zm.82-.42h.8v19.86h-.8zm.81-.42h.8v19.85h-.8zm.82-.43h.8v19.86h-.8zm.81-.42h.8V426h-.8zm.81-.42h.8v19.85h-.8zm.82-.43h.8v19.86h-.8zm-14.65 7.62h.8v19.86h-.8zm15.46-8.04h.8v19.86h-.8zm.81-.42h.8v19.85h-.8zm.82-.43h.8v19.86h-.8zm.81-.42h.8v19.86h-.8zm.82-.42h.8v19.85h-.8zm.81-.43h.8v19.86h-.8zm.81-.42h.8v19.86h-.8zm.82-.42h.8v19.85h-.8zm.81-.43h.8v19.86h-.8zm.82-.42h.8v19.86h-.8zm.8-.42h.8v19.85h-.8zm.82-.43h.8v19.86h-.8zm.82-.42h.8v19.86h-.8zm.81-.42h.8v19.85h-.8zm.81-.43h.8v19.86h-.8zm.82-.42h.8v19.86h-.8zm.81-.42h.8v19.85h-.8zm.82-.43h.8v19.86h-.8zm.8-.53h.8V417h-.8zm.82-.7h.8v19.85h-.8zm.81-.64h.8v19.86h-.8zm.81-.44h.8v19.86h-.8zm.82-.6h.8v19.85h-.8zm.8-.59h.8v19.86h-.8zm.82-.53h.8v19.86h-.8zm.81-.73h.8v19.85h-.8zm.81-.73h.8v19.86h-.8zm.82-.53h.8v19.85h-.8zm.8-.72h.8v19.85h-.8zm.82-.73h.8v19.85h-.8zm.81-.64h.8v19.86h-.8zm.81-.85h.8v19.86h-.8zm.82-.68h.8v19.86h-.8zm.8-.84h.8v19.86h-.8zm.82-.82h.8v19.85h-.8zm.81-.9h.8v19.86h-.8zm.82-1.04h.8v19.86h-.8zm.8-.88h.8v19.86h-.8zm.82-1.12h.8v19.85h-.8zm1.62-2.4h.8v19.85h-.8z" fill="#eac102" stroke-linecap="round" stroke-linejoin="round" stroke-width=".1"/><path d="M745.41 378.43h.8v19.86h-.8z" fill="#eac102" stroke-linecap="round" stroke-linejoin="round" stroke-width=".1"/><path d="M745.99 377.08h.8v19.86h-.8z" fill="#eac102" stroke-linecap="round" stroke-linejoin="round" stroke-width=".1"/><path d="M746.35 376.35h.8v19.86h-.8z" fill="#eac102" stroke-linecap="round" stroke-linejoin="round" stroke-width=".1"/><path d="M746.77 375.24h.8v19.85h-.8z" fill="#eac102" stroke-linecap="round" stroke-linejoin="round" stroke-width=".1"/><path d="M747.03 373.7h.8v19.86h-.8z" fill="#eac102" stroke-linecap="round" stroke-linejoin="round" stroke-width=".1"/><path d="M747.52 372.34h.8v19.86h-.8zm-3.68 9h.8v19.86h-.8zm-110.63 64.6h.8v19.86h-.8zm-9.77 5.08h.8v19.86h-.8zm.81-.42h.8v19.86h-.8zm.82-.42h.8v19.85h-.8zm.81-.43h.8v19.86h-.8zm.82-.42h.8v19.86h-.8zm.8-.42h.8v19.85h-.8zm.82-.43h.8v19.86h-.8zm.82-.42h.8v19.86h-.8zm.81-.42h.8v19.85h-.8zm.81-.43h.8v19.86h-.8zm.82-.42h.8v19.86h-.8zm.81-.42h.8v19.85h-.8z" fill="#eac102" stroke-linecap="round" stroke-linejoin="round" stroke-width=".1"/><path d="m695.9 148.23-.12.06s-68.08 60.54-121.4 99.12c-12.62 45.19 48.04 95.5 49.5 203.47 82.69-39.6 123.18-59.42 123.65-79.06l.34.4-51.06-223.43-.9-.56z" fill="#d91023" stroke-width="1"/><path d="M713.34 222.27 581.96 318.4l22.43 73.75 125.75-96.66-16.8-73.22z" fill="#fff" stroke-width="1"/><path d="M675.78 381.16h-.8v19.86h.8zm-.8.82h-.8v19.86h.8zm-.82 1.32h-.8v19.86h.8zm2.47-2.84h-.8v19.85h.8zm.82-1.08h-.8v19.86h.8zm.8-.63h-.8v19.86h.8zm.85-.91h-.8v19.86h.8zm.84-.85h-.8v19.85h.8zm.9-.71h-.8v19.86h.8zm.83-1.06h-.8v19.86h.8zm.84-.7h-.8v19.85h.8zm.83-.62h-.8v19.86h.8zm.87-.8h-.8v19.86h.8zm.84-.77h-.8v19.85h.8zm.83-.61h-.8v19.85h.8z" fill="#eac102" stroke-linecap="round" stroke-linejoin="round" stroke-width=".1"/><path d="M686.65 371h-.8v19.87h.8zm.87-.54h-.8v19.86h.8zm.83-.6h-.8v19.85h.8zm2.56-1.81h-.8v19.85h.8zm-.84.56h-.8v19.86h.8zm-.85.6h-.8v19.87h.8zm2.6-1.68h-.8v19.86h.8zm.82-.53h-.8v19.86h.8z" fill="#eac102" stroke-linecap="round" stroke-linejoin="round" stroke-width=".1"/><path d="M693.41 366.5h-.8v19.86h.8zm.82-.5h-.8v19.86h.8z" fill="#eac102" stroke-linecap="round" stroke-linejoin="round" stroke-width=".1"/><path d="M695 365.38h-.8v19.86h.8zm.84-.36h-.8v19.86h.8zm.8-.44h-.8v19.85h.8zm.8-.49h-.8v19.86h.8zm.8-.48h-.8v19.86h.8zm.81-.35h-.8v19.85h.8zm.87-.52h-.8v19.86h.8zm.9-.32h-.8v19.86h.8zm.83-.35h-.8v19.86h.8zm.8-.45h-.8v19.86h.8zm.81-.26h-.8v19.86h.8zM741.53 366.28h.8v19.86h-.8zm.84.5h.8v19.86h-.8zm.85.87h.8v19.85h-.8zm-2.5-1.95h.8v19.86h-.8z" fill="#eac102" stroke-linecap="round" stroke-linejoin="round" stroke-width=".1"/><path d="M739.93 364.82h.8v19.86h-.8zm-.83-.47h.8v19.86h-.8zm-.89-.37h.8v19.86h-.8zm-.83-.85h.8V383h-.8zm-21.68-5.33h.8v19.86h-.8zM714.9 357.93h.8v19.85h-.8zm-.8.2h.8v19.86h-.8zm22.42 4.52h.8v19.86h-.8z" fill="#eac102" stroke-linecap="round" stroke-linejoin="round" stroke-width=".1"/><path d="M735.75 362.12h.8v19.86h-.8z" fill="#eac102" stroke-linecap="round" stroke-linejoin="round" stroke-width=".1"/><path d="M734.96 361.67h.8v19.86h-.8z" fill="#eac102" stroke-linecap="round" stroke-linejoin="round" stroke-width=".1"/><path d="M734.17 361.24h.8v19.86h-.8zm-.82-.34h.8v19.85h-.8zm-.87-.41h.8v19.86h-.8zm-.83-.43h.8v19.86h-.8zm-2.47-.76h.8v19.85h-.8zm.84.2h.8v19.85h-.8zm.8.29h.8v19.86h-.8zm-2.5-.83h.8v19.86h-.8zm-.87-.25h.8v19.85h-.8zm-.9-.14h.8v19.86h-.8zm-.92-.27h.8v19.86h-.8zm-.81-.13h.8v19.86h-.8zm-2.64-.36h.8v19.86h-.8zm-.82-.04h.8v19.86h-.8zm-.81-.06h.8v19.85h-.8zm-.82-.03h.8v19.86h-.8z" fill="#eac102" stroke-linecap="round" stroke-linejoin="round" stroke-width=".1"/><path d="M718.95 357.7h.8v19.86h-.8zm-.82 0h.8v19.86h-.8zm-.85.04h.8v19.86h-.8zm-.82 0h.8v19.87h-.8zm-3.33.56h.8v19.86h-.8zm-.86.2h.8v19.85h-.8zm-2.52.5h.8v19.85h-.8zm.86-.25h.8v19.86h-.8zm.82-.16h.8v19.86h-.8zm-2.54.6h.8v19.85h-.8z" fill="#eac102" stroke-linecap="round" stroke-linejoin="round" stroke-width=".1"/><path d="M708.11 359.42h.8v19.86h-.8zm-.8.28h.8v19.85h-.8zm-.82.2h.8v19.86h-.8zm-.84.34h.8v19.86h-.8zm-.8.23h.8v19.86h-.8zm-.8.22h.8v19.86h-.8zm-.8.39h.8v19.86h-.8zm19.8-3.17h.8v19.86h-.8zm.84.08h.8v19.86h-.8zm23.55 13.85h.8v19.86h-.8z" fill="#eac102" stroke-linecap="round" stroke-linejoin="round" stroke-width=".1"/><path d="M746.66 371.18h.8v19.86h-.8zm-.8-1.01h.8v19.85h-.8zm-.86-.92h.8v19.86h-.8zm-.83-.85h.8v19.86h-.8z" fill="#eac102" stroke-linecap="round" stroke-linejoin="round" stroke-width=".1"/><path d="M696.83 148.8C681.79 211.6 686.5 319.34 674 382.6c19.6-22.22 52.64-37.23 73.88-10.36L696.83 148.8z" fill="#d91023" stroke-width="1"/><path d="M708.03 220.73c-.36-.01-.7.01-1.06.03-6.53.26-13.27 3.84-20.13 6.75-1.24 17.7-2.22 35.95-3.22 54l-.18 3.56-.22 3.9c-.28 5.1-.58 10.15-.88 15.16 8.4-16.3 37.3-15.36 47.35-9.06a1462.13 1462.13 0 0 1-6.78-32.16l-9.41-41.12a15.45 15.45 0 0 0-5.47-1.06z" fill="#fff" stroke-width="1"/><g fill="#e7ca00"><path d="m701.78 147.02 3.77 4.65L473.97 339.2l-3.77-4.65z" stroke-linecap="round" stroke-linejoin="round" stroke-width="1"/><path transform="matrix(.31127 .39988 -.79972 .62253 616.1 -199.97)" d="m640.49 100.18 24.67 24.67-24.67 24.67-24.67-24.67 24.67-24.67z" stroke-linecap="round" stroke-width="1.4"/><path transform="matrix(-3.2873 -1.0309 -1.0645 3.6188 2517.7 -1564.4)" d="m358.53 567.19 8.47 10.9-1.29-7.34-7.18-3.56z" stroke-linecap="round" stroke-width=".28"/><path transform="matrix(-3.2873 -1.0309 -1.0645 3.6188 2517.7 -1564.4)" d="M366.8 576.33c.81 0 1.48.64 1.48 1.42 0 .78-.66 1.42-1.48 1.42s-1.48-.64-1.48-1.42c0-.79.66-1.42 1.48-1.42z" stroke-width=".28"/></g></g><use transform="matrix(-1 0 0 1 840 0)" width="800" height="935" xlink:href="#b"/></g><g transform="translate(235 235)" fill="#00a854" stroke="#000" stroke-width="2.17"><g id="i" transform="matrix(.44722 -.20656 .2582 .35777 89.4 -67.3)"><path d="M480.21 566.87c31.28 33.04 62.37 68.15 78.92 111.21 25.21 69.71 18.35 151.53-22.51 213.98-34.4 51.79-85.32 91.51-141.97 116.4-51.95 21.52-112.11 23.77-164.83 3.54-20.12-7.37-38.9-17.91-57.51-28.32-8.44-1.44-13.88 8.65-7 13.3 62.36 40.62 130.87 42.25 202.06 28.2 36.1-9.54 69.76-27.28 98.99-50.4 44.36-33.24 82.62-77.45 99.76-130.9 26.13-79 9.29-171.35-45.17-234.66-13.72-16.78-28.87-32.35-44.68-47.16l3.93 4.8z"/><path d="M170.57 983.29c-8.08-.84-12.17 11.81-5.08 13.64 4.18-1 10.67-12 5.08-13.64zM474.84 552.4c-4.5-5.6-14.06-2.89-17.76-7.3-3.94-4.7 2.89-6.51-.23-10-3.1-3.47-7.74-1.74-12-6.49-4.24-4.75-.42-8.78-4.08-12.1-3.67-3.32-4.17.89-8.37-3.72-4.2-4.61-1.72-12.71-6.3-18.56-4.49-5.71-3-12.5 2.49-11.26 3.64.83 5.06 4.39 10.47 5.76 5.4 1.37 7.57-2.58 11.11.9 3.54 3.48.31 9.12 4.1 13.97 3.8 4.85 5.84 1.3 8.52 5.63 2.69 4.32.5 6.61 2.23 11.67 1.73 5.05 8.38 3.1 10.87 10.74s-1.05 20.76-1.05 20.76z"/><path d="M478.15 564.79c-5.56-26.18-26.97-56.91-52.6-79.47 15.23 11.95 44.85 40.53 54.37 79.28l-1.77.19z"/><path d="M460.18 524.43c-4.16-2.89-7.25-2.85-10.5-3.26 2.96-.16 5.87-.47 9.48 1.16l1.02 2.1zM445 505.48c-4.5-1.46-7.44-.4-10.62.29 2.8-1.15 5.51-2.42 9.26-2.02l1.36 1.73zm4.38 3.38c-2.2-5.54-2.2-9.68-2.53-14.03-.1 3.96-.3 7.86.95 12.69l1.58 1.34zm13.52 18.18c-2.2-5.54-2.2-9.68-2.53-14.03-.1 3.97-.3 7.87.95 12.7l1.58 1.33zM555.18 682.06c-8.26-3.17-17.17-.03-23.88-2.45-7.15-2.58 1.14-8.58-4.41-10.37-5.55-1.79-10.2 5.65-17.79 3.2-7.57-2.44-6.32-10.12-12.54-11.41-6.21-1.3-6.37 7.19-13.82 4.86-7.45-2.32-7.5-12.33-15.97-15.72-8.28-3.31-9.09-11.35-1.33-13.33 5.16-1.32 10.29 1.93 18 .13s6.98-8.64 13.1-7.1c6.1 1.53 4.35 10.42 11.37 13.24 7.01 2.82 11.36-4.9 16.7-1.97 5.32 2.93.25 9.42 4.62 13.7 4.37 4.28 7.73-2.34 14.17 4.2 6.44 6.54 11.78 23.02 11.78 23.02z"/><path d="M563.5 691.58c-22.9-25.58-58.66-41.4-101.83-49.73 25.05 3.44 76.71 14.96 105.23 49.98l-3.4-.25z"/><path d="M524.28 661.45c-6.69-.54-10.76 1.35-15.23 2.88 3.85-1.95 7.57-4.02 13.03-4.48l2.2 1.6zm-27.87-10.81c-6.55 1.17-10 4.05-13.93 6.67 3.23-2.88 6.3-5.84 11.42-7.68l2.51 1zm7.18.92c-5.18-4.5-6.9-8.85-9.12-13.22 1.5 4.22 2.84 8.44 6.48 12.76l2.64.46zm25.36 11c-5.18-4.5-6.89-8.85-9.12-13.22 1.51 4.22 2.84 8.44 6.48 12.76l2.64.46zM554.74 885.6c6.92-5.37 9.13-14.93 14.63-19.39 5.85-4.75 6.26 5.88 10.64 2.07 4.38-3.81.89-12.1 6.86-17.31 5.98-5.2 11.47.26 15.8-4.41 4.34-4.68-2.38-9.65 3.43-14.81 5.82-5.16 13.86.5 21.07-4.95 7.05-5.32 13.92-1.45 11.4 6.44-1.68 5.24-7.01 7.86-9.66 15.6-2.64 7.74 3.23 11-1.24 15.45-4.47 4.45-10.67-2.15-16.65 2.35-5.98 4.5-2.1 12.7-7.27 15.66-5.18 2.97-7.69-5.14-13.43-3.78-5.75 1.37-2.23 8.07-10.89 9.95-8.65 1.89-24.7-2.86-24.7-2.86z"/><path d="M542.69 887.43c32.65-5.37 64.28-27.49 93.85-60.33-16.03 19.86-52.66 58.27-95.85 63.15l2-2.82z"/><path d="M587.64 870.45c3.98-5.52 4.62-10.14 5.77-14.9-.48 4.46-.8 8.88-3.31 13.9l-2.46 1zm23.45-18.1c2.53-6.38 2.05-11.03 2.03-15.93.6 4.44 1.35 8.8.1 14.31l-2.13 1.62zm-4.55 5.72c6.36-1.95 10.75-.96 15.44-.4-4.2-1.1-8.28-2.35-13.67-1.64l-1.77 2.04zm-22.27 15.81c6.36-1.94 10.75-.95 15.44-.4-4.19-1.1-8.28-2.34-13.67-1.63l-1.77 2.03z"/><path transform="translate(1.96 -12.1)" d="M584.54 802.03c5.85-6.62 6.32-16.43 10.93-21.87 4.91-5.8 7.2 4.57 10.83-.02 3.63-4.58-1.27-12.06 3.67-18.33 4.95-6.26 11.32-1.94 14.75-7.37 3.42-5.43-4.06-9.02.74-15.21 4.8-6.2 13.7-2.18 19.83-8.92 5.98-6.58 13.42-4.1 12.34 4.14-.72 5.47-5.5 9.06-6.72 17.18s5.13 10.19 1.52 15.42-10.86-.06-15.94 5.52c-5.08 5.58.2 12.87-4.37 16.79-4.56 3.91-8.47-3.58-13.87-1.13-5.4 2.44-.76 8.36-8.93 11.87s-24.78 1.93-24.78 1.93z"/><path transform="translate(1.96 -12.1)" d="M573.02 806.14c31.13-11.55 58.3-39.37 81.52-77.34-12.23 22.6-41.4 67.4-82.99 80.5l1.47-3.16z"/><path transform="translate(1.96 -12.1)" d="M614.19 780.81c2.92-6.19 2.74-10.86 3.02-15.76.32 4.48.8 8.89-.8 14.3l-2.22 1.46zm19.82-22.3c1.36-6.75.06-11.23-.83-16.05 1.38 4.26 2.9 8.4 2.64 14.06l-1.8 1.99zm-3.45 6.5c5.9-3.14 10.4-3 15.1-3.37-4.31-.27-8.55-.7-13.73 1.03l-1.37 2.34zm-19.08 19.82c5.9-3.13 10.4-3 15.1-3.36-4.3-.27-8.55-.7-13.72 1.02l-1.38 2.34z"/><path d="M567.29 741.2c-7.88-5.63-18.27-4.84-24.71-9.25-6.87-4.7 3.65-8.63-1.74-12.05-5.4-3.42-12.47 3.03-19.84-1.64-7.37-4.68-3.84-12.34-10.1-15.43-6.24-3.1-8.82 5.72-16.1 1.2s-4.46-14.97-12.5-20.88c-7.87-5.78-6.44-14.39 2.38-14.28 5.87.07 10.4 4.9 19.12 5.18 8.72.29 5.01-4.33 11.09-1.01 6.07 3.31 4.83 12.1 11.5 17s15.2-4.66 20.03-.1c4.84 4.55-2.41 9.9 1.02 15.58s8.9-.27 13.89 8.36c4.99 8.62 5.96 27.32 5.96 27.32z"/><path d="M573.43 753.47c-17.08-33.1-50.62-59.63-94.2-80.42 25.69 10.6 77.38 37.1 97.75 81.63l-3.55-1.21z"/><path d="M540.28 711.03c-6.96-2.43-11.84-1.6-17.03-1.26 4.65-.96 9.2-2.08 15.14-1.03l1.9 2.3zm-26.58-19.09c-7.3-.61-11.8 1.43-16.72 3.06 4.25-2.1 8.36-4.33 14.34-4.81l2.38 1.75zm7.38 2.98c-4.23-6.16-4.8-11.17-5.94-16.36.4 4.83.62 9.6 3.26 15.14l2.68 1.22zm23.86 18.58c-4.23-6.15-4.8-11.16-5.94-16.35.4 4.83.62 9.6 3.26 15.14l2.68 1.21zM588.02 750.36c4.44-7.71 3-17.42 6.45-23.72 3.69-6.71 7.95 2.96 10.6-2.3 2.66-5.25-3.6-11.54.03-18.72s10.7-4.3 13-10.33c2.3-6.04-5.72-7.98-2.22-15.05 3.5-7.08 13-5.02 17.68-12.91 4.58-7.7 12.35-6.84 12.89 1.45.36 5.51-3.62 10.04-3.24 18.24.38 8.2 7 8.9 4.5 14.79-2.52 5.88-10.66 2.23-14.54 8.76-3.9 6.53 2.69 12.56-1.01 17.36-3.7 4.8-9-1.72-13.81 1.81s.88 8.35-6.44 13.51-23.89 7.11-23.89 7.11z"/><path d="M577.54 756.81c28.24-17.87 49.43-50.84 64.8-92.9-7.59 24.7-27.45 74.71-65.62 96.3l.82-3.4z"/><path d="M612.93 723.34c1.66-6.68.57-11.22-.1-16.07 1.18 4.32 2.5 8.53 2 14.16l-1.9 1.9zM628 697.32c.02-6.9-2.12-11-3.93-15.54 2.18 3.88 4.46 7.62 5.32 13.2l-1.39 2.34zm-2.11 7.1c5.17-4.32 9.6-5.14 14.13-6.49-4.27.64-8.51 1.11-13.24 3.9l-.9 2.58zm-14.83 23.42c5.18-4.3 9.6-5.13 14.13-6.47-4.27.64-8.5 1.1-13.24 3.9l-.89 2.57zM557.39 638.91c3.62-8.65.84-18.54 3.62-25.58 2.96-7.5 8.65 1.96 10.73-3.88 2.08-5.85-5.24-11.5-2.4-19.48s10.57-5.97 12.18-12.58-7-7.49-4.28-15.34c2.71-7.85 12.87-7.06 16.72-15.92 3.75-8.66 11.95-8.86 13.6-.3 1.09 5.68-2.46 10.94-1 19.42 1.46 8.48 8.45 8.27 6.6 14.74s-10.8 3.82-13.99 11.17c-3.19 7.34 4.44 12.69 1.21 18.2-3.23 5.5-9.58-.52-14.13 3.83-4.54 4.35 2.01 8.55-4.93 14.95-6.94 6.4-23.93 10.77-23.93 10.77z"/><path d="M547.33 647.1c27.05-22.57 44.8-59.85 55.3-105.77-4.66 26.77-18.8 81.58-55.71 109.42l.41-3.66z"/><path d="M579.78 607.29c.86-7.18-.86-11.74-2.2-16.7 1.8 4.33 3.72 8.52 3.93 14.45l-1.73 2.25zm12.3-29.18c-.88-7.18-3.64-11.15-6.12-15.61 2.77 3.72 5.64 7.29 7.26 12.98l-1.14 2.62zm-1.28 7.67c4.82-5.22 9.32-6.7 13.86-8.73-4.36 1.27-8.7 2.35-13.27 5.92l-.59 2.8zm-12.37 26.46c4.82-5.21 9.31-6.69 13.86-8.73-4.36 1.27-8.7 2.35-13.27 5.92l-.59 2.81z"/><path d="M533.38 605.31c4.26-6.59-1.07-18.72 2.25-24.1 3.55-5.75 7.22 2.94 9.79-1.57 2.56-4.5-.43-10.33 3.06-16.48 3.5-6.15 8.54-1.66 10.8-6.87s-2.04-5.33 1.33-11.4c3.38-6.07 12.05-3.85 16.54-10.57 4.38-6.57 11.5-5.48 11.8 1.84.2 4.86-2.92 7.16-2.77 14.4.15 7.22 4.65 9.56 2.2 14.62-2.44 5.06-8.9 1.55-12.62 7.12s.33 7.78-3.18 11.83c-3.51 4.05-6.38 1.49-10.88 4.38-4.5 2.9-.73 11.33-7.57 15.55s-20.75 1.25-20.75 1.25z"/><path d="M522.09 611.2c24.26-10.57 48.6-42.4 63.7-78.7-7.55 21.38-27.47 63.67-63.02 80.98l-.68-2.28z"/><path d="M556.88 582.65c1.69-5.8.8-9.83.29-14.13.99 3.85 2.1 7.6 1.5 12.54l-1.79 1.59zm14.46-22.21c.18-6.06-1.69-9.77-3.24-13.83 1.9 3.5 3.91 6.89 4.57 11.84l-1.33 1.99zm-2.11 6.14c4.85-3.57 8.92-4.1 13.12-5.08-3.94.38-7.83.6-12.24 2.85l-.88 2.23zm-14.17 19.95c4.85-3.57 8.93-4.1 13.13-5.08-3.94.38-7.84.6-12.25 2.85l-.88 2.23z"/><path transform="translate(-13.1 5.76)" d="M394.89 1006.5c3.57-9.04.93-19.72 3.67-27.08 2.93-7.84 8.4 2.52 10.47-3.6 2.06-6.12-5.04-12.52-2.23-20.88s10.32-5.84 11.93-12.8c1.6-6.96-6.77-8.33-4.08-16.56 2.69-8.23 12.56-6.87 16.36-16.13 3.7-9.03 11.68-8.83 13.23.36 1.03 6.11-2.46 11.54-1.08 20.66 1.37 9.1 8.16 9.23 6.33 16.04s-10.52 3.53-13.67 11.2 4.24 13.74 1.07 19.45c-3.18 5.7-9.32-1.03-13.77 3.38-4.45 4.41 1.9 9.21-4.89 15.69-6.79 6.47-23.34 10.27-23.34 10.27z"/><path transform="translate(-13.1 5.76)" d="M388.32 1010.7c26.45-22.7 40.67-57.45 51.16-105.87-4.7 28.3-15.52 81.92-51.58 109.74l.42-3.88z"/><path transform="translate(-13.1 5.76)" d="M416.86 973.94c.88-7.61-.77-12.56-2.04-17.9 1.72 4.7 3.57 9.26 3.73 15.59l-1.7 2.3zm12.13-30.49c-.81-7.7-3.47-12.06-5.86-16.94 2.68 4.11 5.44 8.05 6.99 14.2l-1.13 2.74zm-1.29 8.11c4.72-5.31 9.1-6.66 13.54-8.6-4.25 1.13-8.49 2.07-12.95 5.64l-.59 2.97zm-12.19 27.59c4.72-5.32 9.1-6.67 13.54-8.61-4.25 1.13-8.49 2.07-12.95 5.64l-.59 2.97z"/><path d="M561.08 832.17c-7.13-7.46-19.24-10.08-25.14-16-6.29-6.32 7.03-6.43 2-11.16-5.02-4.73-15.23-1.3-22.1-7.76s-.3-12.07-6.4-16.78c-6.11-4.7-11.98 2.22-18.78-4.07s-.13-14.58-7.36-22.35c-7.06-7.58-2.58-14.7 7.45-11.8 6.68 1.93 10.25 7.63 20.11 10.65 9.86 3.02 13.63-3.06 19.46 1.78 5.84 4.85-2.1 11.18 3.87 17.61 5.98 6.44 16.05 2.6 20.06 8.15 4.01 5.54-6.04 7.94-4 14.03 2.02 6.1 10.24 2.6 13.08 11.77 2.83 9.18-2.25 25.93-2.25 25.93z"/><path d="M540.26 797.04c-7.15-4.36-13-5.18-19.03-6.54 5.63.65 11.2 1.11 17.63 3.92l1.4 2.62zm-24.01-25.25c-8.14-2.87-13.95-2.5-20.11-2.63 5.55-.5 10.98-1.16 17.97.33l2.14 2.3zm7.43 4.96c-2.8-6.76-1.79-11.35-1.36-16.27-1.14 4.37-2.48 8.64-1.3 14.35l2.66 1.92zm21.07 23.95c-2.79-6.76-1.78-11.36-1.35-16.28-1.15 4.38-2.48 8.65-1.3 14.35l2.65 1.93z"/><path d="M561.7 840.05c-8.53-34.55-35.7-63.7-78.54-95.86 25.8 17.5 73.7 52.4 82.2 98.06l-3.66-2.2z"/><g id="f"><path d="M527.3 890.54c-3.35-8.85-19.8-13.11-22.67-20.19-3.07-7.54 9.12-5.22 6.54-10.92s-13.35-4.1-16.88-11.88c-3.53-7.78 4.83-12.28 1.25-18.16-3.59-5.87-11.86.07-15.4-7.53-3.55-7.6 6.03-14.79 2.71-23.97-3.23-8.96 3.86-15.35 11.79-10.59 5.27 3.17 6.12 9.58 13.83 14.44 7.72 4.85 13.72-.63 17 5.34 3.27 5.97-6.65 10.93-3.91 18.53s13.53 5.55 14.85 11.9c1.32 6.34-8.86 6.94-9.58 13.48-.72 6.54 8.25 4.49 6.96 14.3s-6.49 25.25-6.49 25.25z"/><path d="M520.01 853.11c-4.67-5.71-13.03-8.94-17.96-11.4 4.86 1.67 13.11 4.48 17.79 8.5l.17 2.9zm-9.93-24.89c.31-7.35 3.17-11.82 5.64-16.72-2.9 4.22-5.91 8.3-7.25 14.3l1.61 2.43zm12.42 26.07c.31-7.35-.15-9.81 2.32-14.71-2.89 4.22-2.6 6.29-3.92 12.28l1.6 2.43z"/><path d="M525.2 906.63c6.81-36.54-12.82-78.39-38.31-118.74 16.14 22.41 52.24 73.86 40.71 121.63l-2.4-2.89z"/><path d="M505.4 821.85c-6.21-4.39-11.66-5.08-17.22-6.32 5.27.5 10.5.83 16.24 3.6l.98 2.72z"/></g><path d="M493.56 566.12c-1.93-7.02-11.72-8.59-13.37-14.19-1.76-5.96 5.18-4.72 3.7-9.22-1.48-4.5-6.4-4.88-8.42-11.02-2.03-6.14 3.04-8.2 1-12.78-2.06-4.59-4.17-.96-6.2-6.95-2.04-5.99 3.4-12.34 1.5-19.62-1.87-7.11 2.15-12.68 6.67-9.23 3.01 2.3 2.92 6.15 7.32 9.7 4.4 3.53 7.93.85 9.8 5.53s-3.28 8.46-1.71 14.5c1.57 6.03 4.82 3.65 5.58 8.74.76 5.09-2.13 6.25-2.53 11.6-.4 5.35 6.44 6.38 5.73 14.42-.7 8.04-9.07 18.52-9.07 18.52z"/><path d="M491.74 578.84c5.15-26.27-2.39-63.41-16.98-94.87 9.23 17.37 25.13 56.01 18.67 95.44l-1.69-.57z"/><path d="M491.1 534.36c-2.67-4.4-5.5-5.68-8.32-7.43 2.77 1.11 5.55 2.06 8.22 5.08l.1 2.35zm-6.45-23.74c-3.54-3.24-6.65-3.5-9.81-4.23 3 .13 5.97.12 9.25 2.07l.56 2.16zm2.68 4.94c.16-6 1.77-9.77 3.17-13.89-1.64 3.59-3.35 7.06-4.1 12l.93 1.89zm5.24 22.34c.16-6 1.77-9.78 3.17-13.89-1.64 3.58-3.35 7.06-4.09 12l.92 1.89zM509.67 575.22c-.2-6.89-6.92-11.4-7.2-16.89-.3-5.86 14.64-4.38 14.25-8.8-.4-4.41-5.46-4.8-6-10.83s5.33-8.03 4.36-12.53c-.97-4.5-4.13-.95-4.71-6.84-.59-5.88 1.96-12.4 1.84-19.54-.11-6.98 5.57-12.43 9.43-9.03 2.56 2.27 1.46 6.04 5.18 9.53 3.7 3.49 8.35 1 11.29 4.53 2.91 3.5 2.3 6.34 2.4 12.27.08 5.92 4.11 3.6 3.6 8.6-.52 4.98-3.87 6.11-5.67 11.36-1.81 5.25 5.12 6.28 2.28 14.16-2.83 7.88-31.05 24.01-31.05 24.01z"/><path d="M499.22 585.58c24.42-21.57 36.5-63.21 18.32-94 8.18 15.13 12.47 31.13 8.1 50.28a92.12 92.12 0 0 1-24.8 44.29l-1.62-.57z"/><path d="M522.27 550.76c-1.67-4.32-6.17-9.78-8.68-11.5 2.63 1.09 7.15 6.23 9.18 9.2l-.5 2.3zm4.02-26.81c-2.9-3.19-6.09-3.47-9.23-4.19 3.12.15 6.26.14 9.2 2.07l.03 2.12zm1.15.2c1.72-5.88 4.4-9.58 6.94-13.61-2.65 3.5-5.35 6.9-7.42 11.75l.48 1.86zm-4.27 27.52c1.72-5.87 7.86-3.78 12.46-5.22-3.5.05-10.87-1.48-12.94 3.36l.48 1.86zM478.9 575.87c-6.5-4.62-4.56-15.69-9.7-19.5-5.48-4.05-6.72 3.84-10.8.62-4.07-3.23-2.68-8.63-8.24-13.04-5.56-4.4-9.5.29-13.46-3.58s.53-4.8-4.88-9.17c-5.4-4.36-13.87-.83-20.65-5.53-6.62-4.58-13.78-2.29-11.88 3.82 1.27 4.06 5.25 5.36 7.3 11.36 2.03 6-2 8.82 2.11 12.53s9.87-.45 15.49 3.43c5.61 3.89 2 6.5 6.94 9.17s7.17-.01 12.8 1.5c5.63 1.52 4.21 9.23 12.7 11.39 8.5 2.16 22.27-3 22.27-3z"/><path d="M492.6 578.55c-28.8-4.02-64.13-25.61-91.09-52.7 14.46 16.22 48.32 47.31 91.06 54.72l.03-2.02z"/><path d="M447.24 561.7c-3.54-4.47-3.83-7.98-4.6-11.63.13 3.37.1 6.7 2.23 10.66l2.37.97zm-22-15.56c-2.03-4.98-1.19-8.4-.78-12.06-.95 3.26-2.04 6.45-1.22 10.67l2 1.4zm4.1 4.67c-6.2-2-10.66-1.65-15.38-1.65 4.26-.45 8.44-1.02 13.77-.03l1.6 1.68zm21 13.74c-6.2-2-10.66-1.65-15.39-1.65 4.27-.45 8.45-1.02 13.78-.02l1.6 1.67zM500.52 605.58c-8.06-3.5-6.62-15.42-13-18.34-6.82-3.12-7.69 5.36-12.77 2.83-5.08-2.54-3.84-8.45-10.78-11.91-6.94-3.46-11.26 2.23-16.25-1-5-3.22.25-5.11-6.5-8.56-6.74-3.44-16.53 1.95-24.93-1.56-8.2-3.43-16.54.4-13.8 6.38 1.8 3.97 6.63 4.52 9.51 10.36 2.88 5.85-1.7 9.6 3.48 12.62 5.17 3.04 11.67-2.47 18.64.44 6.96 2.9 2.87 6.36 8.94 8.14s8.52-1.47 15.31-1.03 5.7 8.76 15.95 9.28c10.25.52 26.2-7.65 26.2-7.65z"/><path d="M516.98 605.58c-34.48 1.66-78.08-13.66-112.15-36.4 18.4 13.95 60.97 39.48 112.27 38.51l-.12-2.11z"/><path d="M461.84 597.24c-4.54-3.94-5.14-7.53-6.34-11.18.41 3.49.63 6.96 3.46 10.65l2.88.53zm-27.29-11.74c-2.8-4.77-2.06-8.52-1.85-12.41-.88 3.6-1.93 7.14-.64 11.37l2.49 1.04zm5.22 4.03c-7.51-.83-12.78.45-18.39 1.4 5.03-1.33 9.95-2.77 16.35-2.82l2.04 1.42zm25.97 10.05c-7.51-.83-12.78.45-18.38 1.41 5.03-1.34 9.94-2.78 16.35-2.82l2.03 1.41z"/><path d="M517.5 629.67c-8.28-2.96-7.62-14.95-14.2-17.45-7-2.67-7.31 5.84-12.55 3.65-5.24-2.2-4.4-8.18-11.55-11.18s-11.1 2.95-16.3.05c-5.2-2.9-.07-5.11-7.04-8.11s-16.38 3-25 .04c-8.42-2.89-16.49 1.48-13.37 7.26 2.07 3.84 6.93 4.08 10.18 9.72 3.26 5.64-1.06 9.67 4.3 12.36 5.37 2.69 11.5-3.22 18.65-.77 7.14 2.45 3.29 6.16 9.46 7.54 6.17 1.38 8.4-2.02 15.22-2.02s6.27 8.37 16.54 8.23c10.27-.14 25.66-9.32 25.66-9.32z"/><path d="M533.94 628.61c-34.33 3.88-78.86-8.58-114.38-29.06 19.3 12.73 63.47 35.43 114.64 31.16l-.26-2.1z"/><path d="M478.33 623.86c-4.79-3.63-5.63-7.18-7.07-10.74.65 3.45 1.09 6.9 4.16 10.4l2.91.34zm-28.02-9.95c-3.1-4.58-2.61-8.36-2.67-12.26-.63 3.64-1.45 7.25.12 11.38l2.55.88zm5.47 3.68c-7.55-.34-12.73 1.27-18.26 2.6 4.93-1.67 9.75-3.42 16.14-3.88l2.12 1.28zm26.6 8.35c-7.55-.34-12.73 1.27-18.27 2.6 4.94-1.67 9.75-3.42 16.14-3.88l2.13 1.28z"/><g id="c"><path d="M207.2 997.38c6.6-4.26 15.19-3.23 20.58-6.55 5.74-3.54-2.93-7.13 1.57-9.7 4.51-2.56 10.3 2.93 16.46-.57s3.32-9.84 8.53-12.1 7.25 4.96 13.33 1.57c6.07-3.38 3.87-11.94 10.6-16.43 6.58-4.38 5.5-11.4-1.8-11.65-4.87-.17-8.68 3.57-15.9 3.47-7.23-.1-8.12-6.1-13.19-3.64-5.07 2.45-1.51 9.73-7.09 13.45s-11.16-2.07-15.22 1.43c-4.06 3.5 1.89 8.11-1.02 12.59s-7.37-.56-11.6 6.23c-4.23 6.8-5.25 21.9-5.25 21.9z"/><path d="M201.96 1007.1c14.53-26.16 42.62-46.36 78.95-61.54-21.4 7.6-64.52 27.1-81.9 62.39l2.95-.85z"/><path d="M229.91 973.98c5.8-1.7 9.83-.85 14.13-.38-3.85-.95-7.6-2.02-12.54-1.4l-1.59 1.78zm22.24-14.45c6.06-.22 9.76 1.6 13.82 3.12-3.5-1.87-6.88-3.83-11.83-4.44l-2 1.32zm-6.15 2.13c3.58-4.82 4.11-8.86 5.1-13.01-.38 3.9-.61 7.75-2.86 12.13l-2.24.88zm-19.97 14.15c3.57-4.82 4.1-8.86 5.1-13.02-.39 3.9-.62 7.75-2.87 12.13l-2.23.89z"/></g><g id="d"><path d="M210.31 1024.5c9.07 3.59 19.28 0 26.66 2.74 7.86 2.92-1.83 9.73 4.28 11.75 6.12 2.02 11.83-6.42 20.18-3.66 8.36 2.76 6.45 11.47 13.35 12.93 6.9 1.45 7.62-8.17 15.84-5.54 8.22 2.62 7.63 13.97 16.92 17.8 9.08 3.75 9.48 12.87.64 15.13-5.88 1.5-11.44-2.18-20.21-.12-8.78 2.06-8.4 9.82-15.17 8.09-6.77-1.73-4.22-11.82-11.92-15.01s-13.08 5.58-18.88 2.27c-5.8-3.32.32-10.7-4.3-15.54-4.63-4.84-8.84 2.67-15.66-4.74-6.8-7.4-11.73-26.1-11.73-26.1z"/><path d="M201.57 1013.7c24.07 28.98 63.2 46.86 111.16 56.24-27.91-3.85-85.19-16.83-114.96-56.52l3.8.28z"/><path d="M243.68 1047.82c7.48.6 12.18-1.56 17.3-3.3-4.46 2.22-8.77 4.58-14.93 5.1l-2.37-1.8zm30.6 12.21c7.44-1.34 11.5-4.61 16.07-7.6-3.8 3.28-7.44 6.65-13.32 8.74l-2.75-1.14zm-8-1.03c5.53 5.1 7.17 10.03 9.39 14.99-1.42-4.8-2.65-9.58-6.46-14.48l-2.93-.51zm-27.78-12.44c5.53 5.1 7.17 10.03 9.4 14.99-1.43-4.8-2.65-9.58-6.46-14.48l-2.94-.51z"/></g><use transform="translate(43.94 17.37)" width="744.09" height="1052.36" xlink:href="#c"/><use transform="translate(59.27 11.24)" width="744.09" height="1052.36" xlink:href="#d"/><g id="g"><path d="M353.52 1034.1c9.75.94 18.79-5.29 26.67-4.7 8.4.63.7 9.8 7.17 10.04 6.47.26 9.89-9.37 18.73-9.03 8.84.34 9.2 9.19 16.3 8.68 7.09-.5 5.34-9.89 14.02-9.64 8.67.25 10.99 11.25 21.02 12.36 9.8 1.09 12.51 9.68 4.47 14.26-5.34 3.05-11.69 1.06-19.72 5.43-8.02 4.38-5.67 11.68-12.7 11.89-7.05.2-7.13-10.13-15.44-11.06-8.32-.93-11.33 8.92-17.82 7.35s-2.42-10.3-8.16-13.65c-5.74-3.36-7.93 4.97-16.46-.23s-18.08-21.7-18.08-21.7z"/><path d="M342.26 1026.2c30.84 21.06 73.52 27.39 122.63 23.19-28.18 3.98-87.29 7.3-126.41-22.4l3.78-.79z"/><path d="M391.98 1047.24c7.44-1.48 11.47-4.83 16.01-7.9-3.77 3.35-7.37 6.78-13.23 8.98l-2.78-1.08zm32.93 3.26c6.9-3.32 10.03-7.56 13.72-11.66-2.87 4.17-5.56 8.39-10.75 12l-2.97-.34zm-8.06 1.2c6.69 3.36 9.54 7.62 12.97 11.74-2.6-4.18-5.02-8.41-9.98-12.05l-2.99.32zm-30.23-4.24c6.69 3.35 9.54 7.6 12.97 11.73-2.6-4.18-5.02-8.41-9.98-12.05l-3 .32z"/></g><path d="M292.72 1024.55c4.98-5.07 13.17-6.26 17.29-10.28 4.38-4.27-4.54-5.16-1.05-8.34 3.5-3.18 10.25-.04 15.03-4.38 4.77-4.35.53-8.89 4.75-11.99 4.22-3.1 7.96 2.36 12.69-1.86 4.73-4.22.49-10.74 5.55-16.03 4.93-5.16 2.13-10.68-4.68-9.15-4.52 1.02-7.07 5-13.76 6.63-6.7 1.63-9.05-3.08-13.1.14-4.04 3.22 1.12 8.36-3.07 12.74-4.18 4.39-10.82.95-13.66 4.8-2.84 3.83 3.83 6.21 2.3 10.58-1.52 4.37-6.94 1.3-9.09 7.89-2.15 6.59.8 19.25.8 19.25z"/><path d="M292.09 1030.3c6.66-24.96 25.66-44.8 55.25-65.91-17.77 11.34-50.82 34.17-57.76 67.31l2.51-1.4z"/><path d="M307.63 999.91c4.91-2.78 8.85-3.03 12.93-3.66-3.79.13-7.53.13-11.92 1.82l-1 1.84zm16.78-17.16c5.54-1.62 9.42-1 13.55-.72-3.7-.7-7.33-1.52-12.05-.84l-1.5 1.56zm-5.11 3.21c2.05-4.81 1.5-8.26 1.35-11.91.65 3.3 1.43 6.52.48 10.65l-1.83 1.26zm-14.78 16.38c2.06-4.82 1.51-8.27 1.36-11.92.64 3.3 1.42 6.52.48 10.66l-1.84 1.26zM345.42 1017.3c4.02-6.25 12.08-9.14 15.44-14.13 3.58-5.3-5.64-4.41-2.75-8.4 2.9-4 10.38-2.13 14.34-7.59 3.96-5.45-1.26-9.28 2.4-13.34 3.64-4.06 8.54.82 12.48-4.5s-1.68-11.2 2.38-17.7c3.96-6.34 0-11.47-6.6-8.5-4.37 1.97-6.15 6.6-12.6 9.64-6.45 3.05-9.8-1.35-13.24 2.8-3.44 4.15 2.82 8.42-.53 13.8-3.36 5.38-10.78 3.17-12.88 7.72-2.1 4.55 5.13 5.65 4.47 10.48-.66 4.82-6.77 2.74-7.62 9.99-.84 7.25 4.71 19.73 4.71 19.73z"/><path d="M345.95 1023.4c1.7-27.14 16.94-51.5 42.66-79.33-15.72 15.33-44.6 45.63-44.92 81.28l2.26-1.95z"/><path d="M355.55 988.83c4.41-3.87 8.35-4.93 12.36-6.42-3.81.91-7.6 1.68-11.7 4.3l-.66 2.12zm13.53-21.14c5.28-2.8 9.34-2.95 13.59-3.5-3.9.03-7.74-.08-12.39 1.57l-1.2 1.93zm-4.53 4.35c1.1-5.39-.15-8.84-1.04-12.58 1.32 3.27 2.76 6.45 2.64 10.91l-1.6 1.67zm-11.66 19.92c1.1-5.39-.15-8.84-1.04-12.58 1.32 3.27 2.76 6.45 2.64 10.91l-1.6 1.67z"/><g id="h"><path transform="translate(9.39 -7.87)" d="M505.88 948.75c7.67-4.14 11.34-13.2 17.46-16.67 6.52-3.7 5.27 6.86 10.18 3.83 4.91-3.02 2.76-11.79 9.47-15.92 6.7-4.13 11.27 2.2 16.28-1.69 5-3.88-.86-9.92 5.69-14.03 6.54-4.11 13.6 2.83 21.56-1.33 7.78-4.06 13.96.92 10.24 8.28-2.48 4.89-8.14 6.57-11.96 13.76-3.81 7.2 1.48 11.4-3.63 15.04-5.1 3.63-10.2-3.92-16.8-.49-6.6 3.44-4.04 12.17-9.61 14.23-5.57 2.06-6.79-6.38-12.67-6-5.88.38-3.45 7.59-12.29 7.98-8.83.4-23.92-7-23.92-7z"/><path transform="translate(9.39 -7.87)" d="M493.71 948.51c33.05.21 67.7-16.28 102-43.7-18.91 16.9-61.04 48.62-104.42 46.15l2.42-2.45z"/><path transform="translate(9.39 -7.87)" d="M540.71 939.35c4.78-4.78 6.14-9.24 8.02-13.74-1.17 4.32-2.17 8.63-5.44 13.15l-2.58.59zm25.95-13.92c3.5-5.86 3.75-10.53 4.5-15.37-.1 4.49-.05 8.92-2.14 14.14l-2.36 1.23zm-5.37 4.88c6.58-.84 10.75.88 15.3 2.2-3.97-1.78-7.8-3.7-13.24-3.91l-2.07 1.71zm-24.44 11.85c6.58-.84 10.76.88 15.3 2.2-3.97-1.78-7.8-3.7-13.24-3.91l-2.06 1.71z"/></g><path d="M583 716.21c3.62-8.65.84-18.54 3.62-25.58 2.96-7.5 8.65 1.96 10.73-3.88s-5.24-11.5-2.4-19.48 10.57-5.97 12.18-12.58-7-7.49-4.28-15.34c2.71-7.85 12.87-7.06 16.72-15.92 3.75-8.66 11.95-8.85 13.6-.3 1.09 5.68-2.46 10.94-1 19.42 1.47 8.48 8.45 8.27 6.6 14.75-1.85 6.47-10.8 3.82-13.99 11.16-3.19 7.34 4.44 12.69 1.21 18.2-3.23 5.5-9.58-.52-14.13 3.83-4.54 4.36 2.01 8.55-4.93 14.96C600 711.85 583 716.2 583 716.2z"/><path d="M572.93 724.4c27.05-22.57 44.8-59.84 55.31-105.77-4.67 26.77-18.82 81.58-55.72 109.42l.41-3.66z"/><path d="M605.39 684.59c.86-7.18-.87-11.74-2.2-16.7 1.8 4.33 3.72 8.52 3.93 14.45l-1.73 2.25zm12.3-29.19c-.89-7.17-3.65-11.15-6.13-15.6 2.78 3.72 5.64 7.29 7.26 12.98l-1.14 2.62zm-1.29 7.68c4.82-5.22 9.32-6.7 13.86-8.73-4.36 1.27-8.7 2.35-13.27 5.91l-.59 2.82zm-12.37 26.46c4.82-5.21 9.32-6.69 13.86-8.73-4.36 1.27-8.7 2.35-13.27 5.92l-.59 2.81z"/><path d="M572.26 672.08c4.44-7.71 3-17.42 6.45-23.72 3.69-6.71 7.95 2.96 10.6-2.3 2.66-5.25-3.6-11.54.03-18.72s10.7-4.3 13-10.33c2.3-6.04-5.72-7.98-2.22-15.05 3.5-7.08 13-5.02 17.68-12.91 4.58-7.7 12.35-6.84 12.89 1.45.36 5.51-3.62 10.04-3.24 18.24.38 8.2 7 8.9 4.5 14.79-2.52 5.88-10.66 2.23-14.54 8.76s2.69 12.56-1.01 17.36c-3.7 4.8-9-1.72-13.81 1.81s.88 8.35-6.44 13.51-23.89 7.11-23.89 7.11z"/><path d="M561.79 678.53c28.24-17.87 49.43-50.84 64.8-92.9-7.59 24.7-27.45 74.71-65.62 96.3l.82-3.4z"/><path d="M597.17 645.05c1.67-6.67.57-11.2-.1-16.07 1.18 4.32 2.5 8.53 2 14.17l-1.9 1.9zm15.08-26.01c.02-6.9-2.12-11.01-3.94-15.54 2.18 3.87 4.47 7.61 5.33 13.2l-1.4 2.34zm-2.12 7.09c5.17-4.32 9.6-5.14 14.13-6.48-4.27.64-8.5 1.1-13.24 3.9l-.89 2.58zm-14.82 23.43c5.17-4.31 9.6-5.13 14.13-6.48-4.28.64-8.51 1.11-13.24 3.9l-.9 2.58zM566.74 775.94c-7.88-5.63-18.27-4.84-24.71-9.25-6.87-4.7 3.66-8.63-1.74-12.05s-12.47 3.03-19.84-1.64c-7.37-4.68-3.84-12.34-10.1-15.43-6.24-3.1-8.82 5.72-16.1 1.2-7.26-4.52-4.46-14.97-12.5-20.88-7.87-5.78-6.44-14.39 2.38-14.28 5.87.07 10.4 4.9 19.12 5.18 8.72.29 5.01-4.33 11.09-1.01 6.07 3.31 4.83 12.1 11.5 17s15.2-4.66 20.03-.1c4.84 4.55-2.41 9.9 1.02 15.58s8.9-.27 13.89 8.36c4.99 8.62 5.96 27.32 5.96 27.32z"/><path d="M572.89 788.2c-17.08-33.1-50.62-59.63-94.2-80.42 25.69 10.6 77.38 37.1 97.75 81.63l-3.55-1.21z"/><path d="M539.74 745.77c-6.97-2.44-11.85-1.6-17.04-1.27 4.66-.95 9.21-2.07 15.15-1.02l1.89 2.29zm-26.58-19.1c-7.31-.6-11.8 1.43-16.73 3.07 4.26-2.1 8.37-4.34 14.35-4.81l2.38 1.75zm7.38 2.99c-4.24-6.16-4.81-11.17-5.94-16.36.4 4.83.62 9.6 3.26 15.14l2.68 1.21zm23.85 18.58c-4.23-6.15-4.8-11.17-5.93-16.35.4 4.83.61 9.6 3.25 15.13l2.68 1.22zM574.69 843.39c5.85-6.62 6.32-16.43 10.93-21.87 4.92-5.8 7.2 4.57 10.83-.02 3.63-4.58-1.27-12.06 3.67-18.33 4.95-6.26 11.32-1.94 14.75-7.37 3.42-5.43-4.06-9.02.74-15.21 4.8-6.2 13.7-2.18 19.83-8.92 5.98-6.58 13.42-4.1 12.34 4.14-.72 5.47-5.5 9.06-6.72 17.18-1.23 8.12 5.13 10.19 1.52 15.42s-10.86-.06-15.94 5.52.2 12.87-4.37 16.79c-4.56 3.91-8.47-3.58-13.87-1.13-5.4 2.44-.76 8.36-8.93 11.87s-24.78 1.93-24.78 1.93z"/><path d="M563.18 847.5c31.13-11.55 58.29-39.37 81.52-77.34-12.23 22.6-41.4 67.4-82.99 80.5l1.47-3.16z"/><path d="M604.34 822.17c2.93-6.19 2.74-10.86 3.02-15.76.33 4.48.8 8.88-.79 14.3l-2.23 1.46zm19.82-22.3c1.36-6.75.07-11.23-.83-16.05 1.38 4.26 2.9 8.4 2.65 14.05l-1.82 2zm-3.45 6.5c5.9-3.14 10.4-3 15.1-3.37-4.3-.27-8.55-.7-13.72 1.02l-1.38 2.35zm-19.08 19.82c5.91-3.13 10.4-3 15.1-3.37-4.3-.27-8.54-.7-13.72 1.03l-1.38 2.34z"/><use transform="rotate(15 310.01 758.36)" width="744.09" height="1052.36" xlink:href="#e"/><use id="e" transform="rotate(5 93.23 577.12)" width="744.09" height="1052.36" fill="#00a854" stroke="#000" stroke-width="2.17" xlink:href="#f"/><use transform="rotate(-10 274.95 690.26)" width="744.09" height="1052.36" xlink:href="#g"/><use transform="rotate(10 225.44 653.89)" width="744.09" height="1052.36" xlink:href="#h"/></g><use transform="matrix(-1 0 0 1 840 .11)" width="1" height="1" xlink:href="#i"/></g><path d="m491.97 468.5-79.06 98.44c26.19 24.94 41.04 66.67 41.09 100.59.06 42.43-6.9 71.82-15.47 98.63l-.28.84H655V470.5c-47.74 29.64-113.33 41.44-163.03-2z" fill="#007ea8"/><path d="M818.03 468.5c-49.7 43.44-115.29 31.64-163.03 2V767h216.75l-.28-.84c-8.58-26.81-15.53-56.2-15.47-98.63.05-33.92 14.9-75.64 41.1-100.6l-79.07-98.43z" fill="#fff"/><path d="M438.25 767c-11.8 36.68-26.63 68.6-31.25 121.66-6.82 78.34 56.19 121.22 82.22 133.5 40.13 18.93 82.07 12.38 125 17.88 19.92 2.54 31.06 15.15 40.78 25.46 9.72-10.31 20.86-22.92 40.78-25.47 42.93-5.49 84.86 1.06 125-17.87 26.03-12.28 89.04-55.16 82.22-133.5-4.62-53.05-19.44-84.98-31.25-121.66h-433.5z" fill="#d91023"/><g transform="matrix(.475 0 0 .5 164.65 760.5)"><g id="l" fill="#00a854"><path d="M1074.74-201.4s5.85-20.36 17.94-29.3 25.2-5.67 33.2-8.86c-5.33 6.75-5.93 20.27-17.94 29.3s-33.2 8.86-33.2 8.86z" stroke="#000" stroke-width=".9984386999999999"/><path d="M1123.44-237.74c-8.33 2.22-13.52-.31-24.95 3.9m17.28 1.82c-8.33 2.22-14.11-1.33-25.33 3.39m16.13 3.48c-7.91 2.78-11.63-1.2-22.46 4.03m13.26 2.84c-7.91 2.78-9.57-1.72-17.5 4.3m9.32 1.8c-5.17 1.67-7.53-.17-12.14 5.08m46.4-30.64c-4.5 7.35-3.56 13.05-10.84 22.81m3.16-17.09c-4.5 7.36-2.74 13.91-10.45 23.33m1.25-16.46c-4.92 6.8-2.16 11.5-10.25 20.39m1.05-13.52c-4.92 6.8-1.08 9.66-9.1 15.54m.92-9.44c-3.07 4.48-1.98 7.27-8.32 10.2" stroke="#000" stroke-width=".9984386999999999"/><path d="M1130.8-243.63s-13.54 10.04-24.16 18.03-31.64 24.01-31.64 24.01 21.33-15.59 32.02-23.5 24.16-18.03 24.16-18.03" stroke="#000" stroke-width=".9984386999999999"/><path d="M1108.13-317s16.75 12.98 20.58 27.52-4.07 25.52-4.07 34.1c-4.3-7.43-16.62-13-20.58-27.5s4.07-34.11 4.07-34.11z" stroke="#000" stroke-width=".9984074"/><path d="M1123.86-258.3c1.02-8.56 5.3-12.44 5.62-24.62m-8.1 15.38c1.03-8.56 6.47-12.62 6.24-24.79m-9.21 13.7c.35-8.38 5.42-10.36 4.58-22.36m-7.55 11.26c.34-8.38 5.13-8.25 2.48-17.83m-5.12 7.97c.36-5.41 2.94-6.93-.23-13.15m11.29 54.44c-5.17-6.9-10.81-8.13-17.18-18.51m14.7 9.27c-5.17-6.9-11.9-7.7-17.8-18.35m14.83 7.26c-4.49-7.09-9.88-6.27-15.14-17.08m12.17 5.98c-4.5-7.08-8.58-4.58-11.07-14.2m8.43 4.34c-3.03-4.5-6.02-4.53-6.39-11.5" stroke="#000" stroke-width=".9984074"/><path d="M1126.6-249.3s-4.3-16.28-7.8-29.1-10.59-38.29-10.59-38.29 6.59 25.6 9.97 38.45 7.8 29.11 7.8 29.11" stroke="#000" stroke-width=".9984074"/><g id="j" stroke="#000" stroke-width="3.13"><path d="M1206.44-261.85s16.75 12.97 20.58 27.5-4.07 25.52-4.07 34.12c-4.3-7.44-16.63-13-20.58-27.51s4.07-34.11 4.07-34.11z" stroke-width=".9984074"/><path d="M1222.16-203.16c1.03-8.56 5.3-12.45 5.62-24.62m-8.1 15.38c1.03-8.56 6.47-12.62 6.24-24.79m-9.2 13.7c.34-8.38 5.42-10.36 4.57-22.37m-7.55 11.27c.35-8.38 5.14-8.25 2.49-17.83m-5.13 7.97c.37-5.41 2.95-6.93-.22-13.15m11.28 54.44c-5.17-6.9-10.8-8.13-17.18-18.51m14.7 9.27c-5.16-6.9-11.9-7.7-17.79-18.35m14.82 7.26c-4.49-7.09-9.87-6.27-15.14-17.08m12.17 5.98c-4.49-7.08-8.57-4.58-11.07-14.2m8.43 4.34c-3.03-4.5-6.02-4.53-6.38-11.5" stroke-width=".9984074"/><path d="M1224.9-194.15s-4.3-16.3-7.8-29.12-10.58-38.28-10.58-38.28 6.58 25.6 9.97 38.45 7.8 29.11 7.8 29.11M1170.5-136.72s2.85-21 13.53-31.58 24.13-9.24 31.57-13.54c-4.3 7.45-2.95 20.9-13.53 31.58s-31.58 13.54-31.58 13.54z" stroke-width=".9984074"/><path d="M1213.46-179.7c-7.93 3.4-13.43 1.64-24.13 7.45m17.36-.68c-7.92 3.4-14.16.72-24.58 7m16.46 1.12c-7.43 3.9-11.68.49-21.65 7.22m13.53.9c-7.43 3.9-9.71-.32-16.69 6.77m9.48.45c-4.88 2.4-7.48.92-11.28 6.77m41.5-37c-3.4 7.94-1.64 13.43-7.44 24.14m.67-17.37c-3.39 7.93-.7 14.17-6.99 24.59m-1.13-16.47c-3.89 7.43-.48 11.69-7.21 21.66m-.9-13.54c-3.9 7.43.31 9.72-6.77 16.7m-.45-9.48c-2.4 4.88-.92 7.48-6.77 11.28" stroke-width=".9984074"/><path d="M1219.89-186.57s-11.96 11.88-21.32 21.31-27.85 28.31-27.85 28.31 18.87-18.5 28.3-27.86 21.32-21.31 21.32-21.31" stroke-width=".9984074"/></g><path d="M1057.1-278.59s20.57-5.12 34.35.88 17.52 19 24.27 24.32c-8.5-1.23-20.52 5-34.35-.88s-24.26-24.32-24.26-24.32z" stroke="#000" stroke-width=".9984386999999999"/><path d="M1112.93-254.59c-6.09-6.1-6.5-11.86-15.85-19.66m7.06 15.88c-6.09-6.1-5.9-12.89-15.6-20.24m5.05 15.7c-6.37-5.45-4.78-10.67-14.72-17.43m4.17 12.9c-6.36-5.46-3.3-9.14-12.47-13m3.1 8.97c-4.03-3.64-3.63-6.6-10.47-7.97m49.73 24.85c-8.62-.21-13.08 3.46-25.17 2.03m16.38-5.8c-8.62-.22-13.42 4.58-25.43 2.6m14.88-7.14c-8.34-.86-11.03 3.88-22.79 1.31m12.24-5.85c-8.34-.86-8.9 3.9-18.01-.1m8.63-3.93c-5.41-.42-7.28 1.92-12.98-2.1" stroke="#000" stroke-width=".9984386999999999"/><path d="M1121.7-251.16s-15.46-6.7-27.7-11.9-36.6-15.4-36.6-15.4 24.17 10.68 36.36 15.98 27.69 11.9 27.69 11.9" stroke="#000" stroke-width=".9984386999999999"/><path d="M1072.28-383.9s14.68-15.28 29.54-17.53 24.94 6.76 33.49 7.68c-7.86 3.48-14.7 15.15-29.55 17.53s-33.48-7.68-33.48-7.68z" stroke="#000" stroke-width=".9984074"/><path d="M1132.31-393.28c-8.4-1.93-11.8-6.6-23.88-8.22m14.43 9.7c-8.4-1.94-11.86-7.78-23.98-8.85m12.63 10.62c-8.3-1.24-9.72-6.5-21.74-6.94m10.4 8.71c-8.3-1.24-7.66-5.99-17.47-4.37m7.38 5.95c-5.34-.95-6.58-3.67-13.1-1.19m55.33-5.41c-7.4 4.4-9.23 9.88-20.23 15.1m10.78-13.63c-7.41 4.4-8.92 11.02-20.14 15.74m8.8-13.96c-7.53 3.7-7.28 9.15-18.6 13.23m7.25-11.46c-7.52 3.71-5.47 8.04-15.3 9.5m5.21-7.92c-4.8 2.52-5.14 5.5-12.11 5.12" stroke="#000" stroke-width=".9984074"/><path d="M1141.56-395.05s-16.66 2.55-29.78 4.65-39.19 6.45-39.19 6.45 26.15-3.82 39.29-5.82 29.78-4.65 29.78-4.65" stroke="#000" stroke-width=".9984074"/><path d="M1102.17-454.92s19.99 7.05 28.2 19.64 4.16 25.5 6.86 33.67c-6.42-5.72-19.87-7.12-28.19-19.64s-6.87-33.67-6.87-33.67z" stroke="#000" stroke-width=".99847"/><path d="M1135.57-404.15c-1.72-8.45 1.1-13.48-2.41-25.14m-2.85 17.15c-1.72-8.45 2.16-14.02-1.88-25.5m-4.43 15.9c-2.31-8.06 1.89-11.54-2.7-22.66m-3.61 13.07c-2.31-8.06 2.27-9.45-3.26-17.72m-2.35 9.2c-1.36-5.27.61-7.52-4.35-12.42m27.84 48.12c-7.08-4.92-12.82-4.31-22.14-12.17m16.88 4.18c-7.08-4.93-13.73-3.56-22.67-11.82m16.36 2.22c-6.5-5.3-11.35-2.83-19.75-11.44m13.44 1.85c-6.5-5.31-9.59-1.65-14.98-10m9.37 1.47c-4.3-3.33-7.14-2.4-9.68-8.9" stroke="#000" stroke-width=".99847"/><path d="M1141-396.46s-9.21-14.11-16.56-25.19-22.1-33-22.1-33 14.3 22.22 21.57 33.36 16.56 25.18 16.56 25.18" stroke="#000" stroke-width=".99847"/><g id="k" stroke="#000" stroke-width="3.13"><path d="M1213.63-401.79s16.75 12.98 20.58 27.51-4.07 25.52-4.07 34.12c-4.3-7.45-16.63-13.01-20.58-27.51s4.07-34.12 4.07-34.12z" stroke-width=".9984074"/><path d="M1229.36-343.1c1.02-8.55 5.3-12.44 5.62-24.61m-8.1 15.38c1.03-8.57 6.46-12.63 6.24-24.8m-9.21 13.7c.34-8.38 5.42-10.36 4.57-22.36m-7.54 11.27c.34-8.38 5.13-8.25 2.48-17.84m-5.13 7.98c.37-5.42 2.95-6.93-.22-13.15m11.29 54.44c-5.17-6.9-10.81-8.13-17.18-18.51m14.7 9.27c-5.17-6.9-11.9-7.7-17.8-18.35m14.83 7.25c-4.5-7.08-9.88-6.26-15.15-17.07m12.18 5.98c-4.5-7.08-8.58-4.58-11.08-14.2m8.43 4.34c-3.02-4.5-6.01-4.53-6.38-11.5" stroke-width=".9984074"/><path d="M1232.1-334.08s-4.31-16.3-7.8-29.12-10.59-38.28-10.59-38.28 6.58 25.6 9.97 38.44 7.8 29.12 7.8 29.12M1167.1-294.91s8.2-19.54 21.24-27 25.7-2.68 34-4.9c-6.07 6.07-8.25 19.43-21.24 27s-34 4.9-34 4.9z" stroke-width=".9984074"/><path d="M1219.72-325.3c-8.53 1.23-13.39-1.9-25.23.95m16.95 3.84c-8.54 1.22-13.87-2.98-25.56.39m15.61 5.35c-8.18 1.83-11.4-2.56-22.78 1.37m12.84 4.37c-8.19 1.84-9.3-2.82-17.88 2.22m9.04 2.88c-5.33 1.05-7.46-1.05-12.65 3.62m49.66-24.99c-5.32 6.78-5.05 12.55-13.43 21.39m5.15-16.6c-5.33 6.78-4.36 13.5-13.12 21.94m3.17-16.2c-5.68 6.17-3.49 11.16-12.57 19.05m2.63-13.3c-5.68 6.16-2.21 9.46-10.86 14.36m2.02-9.27c-3.57 4.1-2.82 6.99-9.46 9.15" stroke-width=".9984074"/><path d="M1227.71-330.28s-14.62 8.38-26.1 15.07-34.23 20.14-34.23 20.14 23.01-12.98 34.55-19.58 26.1-15.08 26.1-15.08" stroke-width=".9984074"/></g><path d="M1182.23-442s19.63-7.98 34.12-3.99 20.03 16.34 27.46 20.66c-8.6-.03-19.6 7.84-34.13 3.97S1182.23-442 1182.23-442z" stroke="#000" stroke-width=".9984386999999999"/><path d="M1240.88-426.13c-6.89-5.18-8.1-10.83-18.47-17.23m9.23 14.73c-6.88-5.19-7.66-11.93-18.3-17.84m7.22 14.84c-7.07-4.5-6.23-9.9-17.04-15.19m5.96 12.19c-7.08-4.5-4.56-8.59-14.18-11.11m4.32 8.44c-4.5-3.04-4.51-6.03-11.48-6.41m52.74 17.58c-8.56 1-12.46 5.27-24.64 5.56m15.4-8.06c-8.56 1-12.63 6.43-24.8 6.17m13.72-9.17c-8.38.32-10.37 5.4-22.37 4.52m11.29-7.52c-8.38.32-8.27 5.11-17.85 2.44m8-5.1c-5.43.34-6.95 2.92-13.16-.26" stroke="#000" stroke-width=".9984386999999999"/><path d="M1250.05-423.98s-16.26-4.45-29.1-7.87-38.42-10.08-38.42-10.08 25.44 7.17 38.25 10.7 29.1 7.87 29.1 7.87" stroke="#000" stroke-width=".9984386999999999"/><path d="M1215.13-497.14s19.52 8.24 26.94 21.31 2.61 25.71 4.82 34.02c-6.07-6.1-19.41-8.31-26.95-21.32s-4.8-34.01-4.8-34.01z" stroke="#000" stroke-width=".9984074"/><path d="M1245.38-444.44c-1.2-8.54 1.93-13.39-.88-25.24m-3.89 16.94c-1.2-8.54 3.02-13.86-.32-25.56m-5.4 15.6c-1.8-8.19 2.6-11.4-1.3-22.79m-4.4 12.83c-1.82-8.19 2.84-9.3-2.18-17.88m-2.9 9.03c-1.04-5.33 1.06-7.46-3.6-12.66m24.87 49.73c-6.77-5.35-12.54-5.09-21.35-13.5m16.58 5.2c-6.76-5.35-13.48-4.39-21.9-13.17m16.19 3.21c-6.16-5.7-11.15-3.52-19.02-12.63m13.3 2.67c-6.15-5.7-9.46-2.23-14.34-10.9m9.26 2.05c-4.08-3.58-6.98-2.84-9.12-9.48" stroke="#000" stroke-width=".9984074"/><path d="M1250.34-436.44s-8.35-14.64-15-26.14-20.05-34.29-20.05-34.29 12.92 23.05 19.49 34.6 15 26.15 15 26.15" stroke="#000" stroke-width=".9984074"/><use transform="translate(-32 -18)" width="744.09" height="1052.36" xlink:href="#j"/><path d="M1142.4-297.85s16.75 12.97 20.58 27.5-4.07 25.53-4.07 34.12c-4.3-7.44-16.63-13-20.58-27.51s4.07-34.11 4.07-34.11z" stroke="#000" stroke-width=".9984074"/><path d="M1158.13-239.16c1.02-8.56 5.3-12.44 5.62-24.62m-8.1 15.38c1.03-8.56 6.46-12.62 6.24-24.79m-9.21 13.7c.34-8.38 5.42-10.36 4.57-22.37m-7.54 11.27c.34-8.38 5.13-8.25 2.48-17.83m-5.13 7.97c.37-5.41 2.95-6.93-.22-13.15m11.29 54.44c-5.17-6.9-10.81-8.13-17.18-18.51m14.7 9.27c-5.17-6.9-11.9-7.7-17.8-18.35m14.83 7.26c-4.5-7.09-9.88-6.27-15.15-17.08m12.18 5.98c-4.5-7.08-8.58-4.58-11.08-14.2m8.43 4.34c-3.02-4.5-6.01-4.53-6.38-11.5" stroke="#000" stroke-width=".9984074"/><path d="M1160.87-230.15s-4.31-16.3-7.8-29.12-10.59-38.28-10.59-38.28 6.58 25.6 9.97 38.45 7.8 29.11 7.8 29.11M1106.5-172.72s2.86-21 13.53-31.58 24.14-9.23 31.58-13.53c-4.3 7.44-2.95 20.9-13.54 31.58s-31.57 13.53-31.57 13.53z" stroke="#000" stroke-width=".9984074"/><path d="M1149.46-215.69c-7.92 3.4-13.42 1.64-24.13 7.45m17.37-.68c-7.93 3.4-14.16.71-24.59 7m16.47 1.12c-7.43 3.89-11.69.48-21.66 7.22m13.54.9c-7.43 3.89-9.72-.32-16.7 6.77m9.48.45c-4.87 2.39-7.48.91-11.28 6.76m41.5-36.99c-3.39 7.93-1.63 13.43-7.44 24.14m.68-17.37c-3.4 7.93-.72 14.16-7 24.58m-1.12-16.46c-3.9 7.43-.49 11.68-7.22 21.65m-.9-13.53c-3.9 7.43.32 9.72-6.77 16.69m-.45-9.47c-2.4 4.87-.91 7.47-6.77 11.27" stroke="#000" stroke-width=".9984074"/><path d="M1155.9-222.57s-11.96 11.88-21.32 21.32-27.86 28.3-27.86 28.3 18.87-18.49 28.3-27.85 21.32-21.32 21.32-21.32" stroke="#000" stroke-width=".9984074"/><use transform="translate(-62 -40)" width="744.09" height="1052.36" xlink:href="#k"/><use transform="translate(-31 -20)" width="744.09" height="1052.36" xlink:href="#k"/></g><use transform="matrix(-1 0 0 1 2501 0)" width="744.09" height="1052.36" fill="#00a854" xlink:href="#l"/><path d="M1250.5-437.12c-8.62 41.67-8.6 79.16-8.6 79.16-.5 13.94-7.4 23.67-13.78 20-54.88-31.7-60.29-37.57-89.12-59.67 24.3 26.46 31.23 38.23 86.72 70.26 10.73 6.2 12.06 16.38 11.62 29.47l-1.68 61.72c-.3 9.03 5.74 50.08-22.57 34.22-65.37-36.64-63.77-33.59-95.09-51.67 38.07 32.32 24.37 23.47 90.6 61.7 11.94 6.9 24.53 24.5 24.53 32.84 0 124.33 1.86 101.5-12.82 139.1h60.38c-14.68-37.6-12.82-14.76-12.82-139.1 0-8.35 12.6-25.95 24.54-32.84 66.22-38.23 51.52-29.38 89.59-61.7-31.32 18.08-28.72 15.03-94.1 51.67-28.3 15.86-22.25-25.19-22.56-34.22l-1.68-61.72c-.44-13.09.9-23.27 11.62-29.47 55.49-32.03 62.41-43.8 86.72-70.26-28.83 22.1-34.24 27.98-89.13 59.67-6.37 3.67-13.27-6.06-13.78-20 0 0 .03-37.5-8.59-79.16z" fill="#947245" stroke="#000"/></g><g stroke-width=".91"><path transform="matrix(1.0965 0 0 1.1036 218.26 166.75)" d="M264.45 424.64c-.25.94 1.5 12.37.55 15.66-.51 4.54-.64 5.24-1.7 11.12-1.08 5.88-2.37 17.3-4.4 24.16-.17.58-.4 1.36-.45 2.04-.57 3.5-.58 5.98-.21 10.35l3.51 19.42s1.64 1.92 1.88 2.72c.25.8-.17 2 0 2.25.92 1.36 1.07 2.7 2.17 3.85.18.18.92.1 1.12.35.17.22 1.49.3 1.74.47.79.74.65 1.28 1.05 2.4l-6.32.03c.16-2.82-2.06-3.94-2.06-3.94-.24-.3-2.82-1.02-3.12-2.68-.41-2.4-.07-2.87-.07-2.87s-2.11-9.06-3-11.33c-.5-1.76-.6-2.6-.85-4.13-.76-4.24-1.01-6.07-3.32-12.4-.54-1.1-1.98-1.46-1.87-2.9.16-.56.43-.98.7-1.46l.08-1.11c.33-5.19.62-10.39 1.05-15.55a1.85 1.85 0 0 0 .24-.74c.6-8.8-4.08-17.02-7.1-24.9-.55-1.43-.08-3-.7-4.42-3.21-1.1-5.41-6.48-6.56-9.86-1.12-3.3-1.62-8.28-.76-11.58.27-1.08.43-1.82.96-2.53m63.31 36.69a8.33 8.33 0 0 1 2.51-.31s.74 1.02.96 1.5c1.53 2.75 3.37 15.34 4.44 21.19.33 1.81 1.09 5.94 1.43 7.87 0 0-.38 2.06.29 4.34.2.7.42 1.39.6 2.09.81 3.06 1.72 3.8 1.72 3.8.22.74 1.47 6.76 1.68 7.5 1.85 8.23 2.75 13.2 2.63 16.64-.12 4.72-.1 4.26.28 4.64 1.04 1.07 1.57.41 3.79 6.09.13.45.26-.22.5.23.29.54.78.48 1.18.53.73.1.6.23 1.18.31a6.25 6.25 0 0 0 1.58.01l5.46.04a5.38 5.38 0 0 0-4.82-3.38c-.86-.53-1.85-1.29-2.16-2.3-1.25-2-1.6-2.42-2.26-3.33.1-.72-.41-1.69-.64-2.47l-1.96-23.23s.4-2.33.37-4.74c-.16-12.77.58-25.62 1.05-38.44.16-1.07 4.04-4.7 4.04-4.7" fill="#e3e4e5" stroke="#000" stroke-linecap="square"/><path transform="matrix(1.0965 0 0 1.1036 218.26 166.75)" d="M356.76 323.79a7.33 7.33 0 0 0-5.44 2.5c-1.8 2.47-2.97 7.56-3.1 10.62-.04.81.3 1.43.04 2.15a83.33 83.33 0 0 0-1.64 4.95c-.76 4.32-.91 19.8-2 25.73-1.1 5.94-6.1 14.56-7.97 17.35-1.22 1.36-3.75 2.06-4.53 2.23-.78.18-7.2-.48-7.2-.48-8.47-.6-21.06-5.27-29.5-6.4-8.46-1.15-18.68-.6-26.63-1.45 0 0-9.95-3.68-19.12-1.02-9.03 2.63-14.11 7.48-21.96 19.55 0 0-3.37 4.11-3.4 5.46-.14 4.44 1.77 10.02 5.2 12.84 1.1 1.07.8.11.71-.17l.03.05c.3.66.66 2.4 1.1 3a43.7 43.7 0 0 1 3.3 5.2c.79 1.49.38 3.25 1.08 4.75 3.85 8.3 2.06 16.83 2.03 26.5a2.07 2.07 0 0 1-.21.83c-.1 5.68-5.65 13.28-5.65 18.98v1.22c-.27.55-.54 1.04-.66 1.66-.03 1.6-2.17 1.84-1.5 2.98 2.96 6.69 3.37 8.67 4.5 13.22.37 1.66.54 2.56 1.22 4.43 1.12 2.39 4.06 12.08 4.06 12.08s-.34.55.28 3.12c.44 1.8 3.3 2.31 3.59 2.63 0 0 2.66 1.63 2.68 4.73 0 .4 2.52.22 2.86.22 1.02 0 2-.15 3.02-.15-.13-1.3-.45-2.06-1.36-2.8-.29-.15-1.46-.53-1.66-.75-.23-.25-.42-.77-.62-.95-1.29-1.14-1.54-2.59-2.65-3.98-.2-.25.18-1.6-.15-2.46-.32-.86-2.24-2.79-2.24-2.79l-5.2-20.86c-.71-4.73 2.87-7.44 3.24-11.32 0-.75 4.58-12.16 4.8-12.78 3.33-8.9 8.8-22.84 8.69-28.71-.13-6.58-.26 1.27.34-3.71.45-3.75-1.76-13.77-1.55-14.83 12.43 20.75 24.52 28.25 44.46 26.27 1.08-.1 1.5-.12 2.58.03 0 0 .44 1.08.51 1.58.72 2.86-1.1 15.3-1.74 21.12-.2 1.8-.63 5.9-.85 7.8 0 0-.98 1.96-.98 4.26 0 .7.02 1.4 0 2.1-.09 3.07.6 3.92.6 3.92 0 .73-.5 6.73-.5 7.47-.56 8.23-1.15 12.1-2.27 15.43-.2.59-.7 1.44-1.3 1.6-.57.43-1.53 1.33-1.63 2.11 0 .67.06 1.28.2 1.88.1.45.57 1.18.82 1.55.38 1.77.2 3.61.2 5.42 0 .46.2 1.19.31 1.65.13.56.64.57 1.02.67.7.19.45.62 1.02.78.46.12 1 .1 1.53.1l5.4.03c-.08-2.02-2.06-3.06-3.42-4.02-.7-.63-.64-.77-.65-1.79 0-1.29-.14-2.73-.14-4.02 0-.7.3-.97.56-1.54.32-.69.08-1.7.08-2.48 1-6.87 2.17-13.92 4-20.61 1.46-1.9 2.1-4.32 2.54-6.71 0 0 1.18-3.2.78-4.9l4.96-30.14a3.9 3.9 0 0 1 2.38-2.23c6.19-2.72 12.3-4.57 18.12-8.62 6.3-4.38 10.09-11.54 14.58-17.98.99-1.92 2.14-3.59 3.26-5.37 3.86-5.54 8.7-20.03 10-27.22 1.53-8.49.92-16.88 3.38-26.94.53-2.16 2.36-3.88 2.78-6.12l-.04-.4 1.23-.17c1.32-.15 2.94-.42 3.87-.44.98-.12 2.99-.1 3.16-.1.18 0 1.23.21 1.84.21.51 0 1.35.55 1.86.55.55 0 .95-.1 1.3-.55.66-.82.73-.56.9-1.3.05-.24.31.01.44-.03.47-.17.84-.78 1.4-.93.38-.1.67-.24.74-.62.09-.48.1-1 .1-1.55 0-.79-.04-.83-.61-.99-.07-.02-.14-.08-.2-.11-.6-.16.1-1.33.1-2a3.8 3.8 0 0 0-.2-1.54 2.4 2.4 0 0 0-.83-1.1c-.35-.3-.54-.68-.92-.89-2.8-2.42-4.04-4.22-6.01-6.09.33-.4.27-.61.15-1.3-.9-2.72-2.64-3.23-5.56-5.44-2.74-1.58-6.31-3.3-10.1-3.65h-1.64a6.64 6.64 0 0 0-.4-.01z" fill="#fff" stroke="#000" stroke-linecap="square"/><path d="M609.45 524.08a8.03 8.08 0 0 0-5.97 2.76c-1.97 2.73-3.25 8.35-3.4 11.72-.04.9.33 1.57.05 2.37a92.38 92.38 0 0 0-1.8 5.46c-.83 4.76-1 21.85-2.2 28.4-1.19 6.55-6.54 16.2-8.73 19.14-1.2 1.64-4.12 2.28-4.97 2.47-.85.2-7.9-.53-7.9-.53-9.28-.66-23.09-5.82-32.35-7.07-9.26-1.26-20.47-.66-29.2-1.6 0 0-10.9-4.06-20.95-1.12-9.9 2.9-15.48 8.26-24.08 21.57 0 0-3.7 4.54-3.74 6.03-.14 4.8 1.87 10.83 5.5 13.99.06.06 1.18.77 1.25.83.15-7.74 1.4-11.43 1.4-11.43a32.1 32.1 0 0 0 1.89 11.24c.81 2.35 2.8 4.52 4.05 6.77 1.94 5.25 3.4 20.64 4.38 27.05.5 3.3-1.98 14.42-3.63 19.4-3.19 9.68-4.6 18.37-.83 11.83 1.68-2.92 8.08-15.16 11.36-26.56 3.29-11.4 6.5-18 5.5-20.32-.33-.76-1.26-16.57-1.47-17.19a9.33 9.4 0 0 1-.28-.96c-.09-.36-.31-.66-.07-1.91l1.56-8.1c16.1 30.1 41.75 33.84 59.16 12.8-2.62 8.54-2.73 20.95-2.43 26.19.3 5.23.26 3 .18 4.83l-3.08 28.73-.27.57s-.7 1.58-.7 3.06c0 .7.03 1.5 0 2.43-.04 1.34 0 2.1.16 2.3l.5.62a30.1 30.1 0 0 1-.1 3.07l-.09 1.18.39-.48c1.07-1.35 1.67-3.43 2.11-5.87 0 0 .03-.22.06-.31.02-.1.1-.3.1-.3s.26-.7.48-1.6c.21-.88.25-1.68.25-1.68l-.17-.71.12-.73s5.44-33.1 5.45-33.27c0-.18.13-.63.28-.93 1.04-1.47 3.37-3.1 4.23-4.1.88-1.02 4.09-14.48 3.6-22.89-1.1-19.25 24.23-24.73 32.71-15.22a25.52 25.52 0 0 0 8.12-7.2 44.12 44.12 0 0 0 5.42-9.76c.2-.72.45-1.5.63-2.19.47-1.82.84-3.48 1.1-4.9a66.92 67.35 0 0 0 .52-3.5 102.94 103.6 0 0 0 .39-3.53c.21-2.36.36-4.74.55-7.18.2-2.44.41-4.92.76-7.5a83.7 83.7 0 0 1 1.49-8c.14-.6.38-1.16.65-1.72s.6-1.09.91-1.63c.32-.54.63-1.08.9-1.65a7.4 7.4 0 0 0 .58-1.76l-.05-.45.87-.12.01-.08c-4.1.86-2.25.2-6.21.73a7.5 7.5 0 0 1-3.1-.49c-2-1.4-3.69-3.25-4.55-5.68 0-2.71.88-7.9 1.63-9.29 2.46-4.62 4.49-1.12 9.4.24 4.66 1.3 11.62 4.95 14.25 7.48.3.3 3.85.46 4.2.27.26-.14.54-.1.81-.2 0-.06.05-.14.06-.22.01-.06 0-.1.02-.18.1-.44.3-.95.3-1.31 0-.37-.02-.68-.04-.95a2.6 2.6 0 0 0-.18-.77 4.75 4.78 0 0 0-.27-.5 2.54 2.56 0 0 0-.63-.72c-.4-.32-.6-.75-1.01-.97-3.08-2.67-4.43-4.66-6.6-6.72.36-.45.3-.68.17-1.43-1-3.01-2.9-3.57-6.1-6.02-3-1.74-6.92-3.63-11.08-4.02h-1.79a7.37 7.42 0 0 0-.44-.01z" fill="#d18219"/><path transform="matrix(1.0965 0 0 1.1036 218.26 166.75)" d="M356.76 323.79a7.33 7.33 0 0 0-5.44 2.5c-1.8 2.47-2.97 7.56-3.1 10.62-.04.81.3 1.43.04 2.15a83.33 83.33 0 0 0-1.64 4.95c-.76 4.32-.91 19.8-2 25.73-1.1 5.94-6.1 14.56-7.97 17.35-1.22 1.36-3.75 2.06-4.53 2.23-.78.18-7.2-.48-7.2-.48-8.47-.6-21.06-5.27-29.5-6.4-8.46-1.15-18.68-.6-26.63-1.45 0 0-9.95-3.68-19.12-1.02-9.03 2.63-14.11 7.48-21.96 19.55 0 0-3.37 4.11-3.4 5.46-.14 4.44 1.77 10.02 5.2 12.84 1.1 1.07.8.11.71-.17l.03.05c.3.66.66 2.4 1.1 3a43.7 43.7 0 0 1 3.3 5.2c.79 1.49.38 3.25 1.08 4.75 3.85 8.3 2.06 16.83 2.03 26.5a2.07 2.07 0 0 1-.21.83c-.1 5.68-5.65 13.28-5.65 18.98v1.22c-.27.55-.54 1.04-.66 1.66-.03 1.6-2.17 1.84-1.5 2.98 2.96 6.69 3.37 8.67 4.5 13.22.37 1.66.54 2.56 1.22 4.43 1.12 2.39 4.06 12.08 4.06 12.08s-.34.55.28 3.12c.44 1.8 3.3 2.31 3.59 2.63 0 0 2.66 1.63 2.68 4.73 0 .4 2.52.22 2.86.22 1.02 0 2-.15 3.02-.15-.13-1.3-.45-2.06-1.36-2.8-.29-.15-1.46-.53-1.66-.75-.23-.25-.42-.77-.62-.95-1.29-1.14-1.54-2.59-2.65-3.98-.2-.25.18-1.6-.15-2.46-.32-.86-2.24-2.79-2.24-2.79l-5.2-20.86c-.71-4.73 2.87-7.44 3.24-11.32 0-.75 4.58-12.16 4.8-12.78 3.33-8.9 8.8-22.84 8.69-28.71-.13-6.58-.26 1.27.34-3.71.45-3.75-1.76-13.77-1.55-14.83 12.43 20.75 24.52 28.25 44.46 26.27 1.08-.1 1.5-.12 2.58.03 0 0 .44 1.08.51 1.58.72 2.86-1.1 15.3-1.74 21.12-.2 1.8-.63 5.9-.85 7.8 0 0-.98 1.96-.98 4.26 0 .7.02 1.4 0 2.1-.09 3.07.6 3.92.6 3.92 0 .73-.5 6.73-.5 7.47-.56 8.23-1.15 12.1-2.27 15.43-.2.59-.7 1.44-1.3 1.6-.57.43-1.53 1.33-1.63 2.11 0 .67.06 1.28.2 1.88.1.45.57 1.18.82 1.55.38 1.77.2 3.61.2 5.42 0 .46.2 1.19.31 1.65.13.56.64.57 1.02.67.7.19.45.62 1.02.78.46.12 1 .1 1.53.1l5.4.03c-.08-2.02-2.06-3.06-3.42-4.02-.7-.63-.64-.77-.65-1.79 0-1.29-.14-2.73-.14-4.02 0-.7.3-.97.56-1.54.32-.69.08-1.7.08-2.48 1-6.87 2.17-13.92 4-20.61 1.46-1.9 2.1-4.32 2.54-6.71 0 0 1.18-3.2.78-4.9l4.96-30.14a3.9 3.9 0 0 1 2.38-2.23c6.19-2.72 12.3-4.57 18.12-8.62 6.3-4.38 10.09-11.54 14.58-17.98.99-1.92 2.14-3.59 3.26-5.37 3.86-5.54 8.7-20.03 10-27.22 1.53-8.49.92-16.88 3.38-26.94.53-2.16 2.36-3.88 2.78-6.12l-.04-.4 1.23-.17c1.32-.15 2.94-.42 3.87-.44.98-.12 2.99-.1 3.16-.1.18 0 1.23.21 1.84.21.51 0 1.35.55 1.86.55.55 0 .95-.1 1.3-.55.66-.82.73-.56.9-1.3.05-.24.31.01.44-.03.47-.17.84-.78 1.4-.93.38-.1.67-.24.74-.62.09-.48.1-1 .1-1.55 0-.79-.04-.83-.61-.99-.07-.02-.14-.08-.2-.11-.6-.16.1-1.33.1-2a3.8 3.8 0 0 0-.2-1.54 2.4 2.4 0 0 0-.83-1.1c-.35-.3-.54-.68-.92-.89-2.8-2.42-4.04-4.22-6.01-6.09.33-.4.27-.61.15-1.3-.9-2.72-2.64-3.23-5.56-5.44-2.74-1.58-6.31-3.3-10.1-3.65h-1.64a6.64 6.64 0 0 0-.4-.01z" fill="none" stroke="#000" stroke-linecap="square"/><path transform="matrix(1.0965 0 0 1.1036 218.26 166.75)" d="M382.26 343.82c0 .33-.16.8-.26 1.19-.02.06-.01.1-.02.16.08-.4.3-.83.3-1.22l-.01-.13z" fill="#d39044" stroke="#000" stroke-linecap="square"/><path transform="matrix(1.0965 0 0 1.1036 218.26 166.75)" d="M334.95 432.87c-2.06 8.33-7.18 10.02-3.42 17.09 0 0-1.62-.12-2.6-2.84-.48-1.36-.8-3.37-.69-6.34.06-1.49.23-3.21.54-5.22.16-1 .36-2.08.6-3.22" fill="#fff" fill-rule="evenodd" stroke="#000"/><path transform="matrix(1.0965 0 0 1.1036 218.26 166.75)" d="M338.75 429.43c-2.06 8.33-7.19 10.02-3.42 17.09 0 0-2.03-.03-3-2.75a19.05 19.05 0 0 1-.86-5.38c-.02-1.73.45-4.68.79-5.92.33-1.24 1.23-3.3 1.23-3.3" fill="#fff" fill-rule="evenodd" stroke="#000"/><path transform="matrix(1.0965 0 0 1.1036 218.26 166.75)" d="M345.77 418.39c-2.93 5.5-5.3 10.21-6.52 14.3-1.22 4.09-2 6.27.31 10.6 0 0-1.56-.82-3.62-4.63-.65-1.2-1.1-3.87-.8-6.6a30.55 30.55 0 0 1 .78-4.39 30.07 30.07 0 0 1 .8-2.58" fill="#fff" fill-rule="evenodd" stroke="#000"/><path transform="matrix(1.0965 0 0 1.1036 218.26 166.75)" d="M348.5 414.88c-1.82 2.8-2.4 5.46-3.41 7.73-2.02 4.54-3.09 7.95-3.09 10.44 0 2.03-.36 3.71 1.9 7.16 0 0-1.05-.12-1.75-.54s-1.56-1.2-2.27-2.62c-.7-1.43-1.25-3.5-1.3-6.53-.02-1.51.48-3.75.9-5.22.4-1.47 1.8-4.55 1.8-4.55" fill="#fff" fill-rule="evenodd" stroke="#000"/><path transform="matrix(1.0965 0 0 1.1036 218.26 166.75)" d="M353.27 334.54c.12-.24-11.57-3.64-13.24-13.86 2.27-2.15 14.25 5.7 14.44 12.99" fill="#d18219" fill-rule="evenodd" stroke="#000"/><path transform="matrix(1.0965 0 0 1.1036 218.26 166.75)" d="M340.42 320.82c.1.21 6.27.19 11.14 10.6-1.1-1.24-6.04 1.68-11.1-10.2" fill-opacity=".5" fill-rule="evenodd" stroke="#000"/><path transform="matrix(1.0965 0 0 1.1036 218.26 166.75)" d="M368.7 335.55c.17-.14.4-.46.13-.75-5.1-3.2-4.86.7-8.44.7 1.7 0 1.7.24 2.34.93 2.32 2.51 3.92 2.26 5.98-.18" fill-rule="evenodd" stroke="#000"/><path transform="matrix(1.0965 0 0 1.1036 218.26 166.75)" d="M381.2 349.76c-.57.67-2.55-.79-4-.96" fill="none" stroke="#000" stroke-linecap="square"/><path transform="matrix(1.0965 0 0 1.1036 218.26 166.75)" d="M382.33 345.92s-.54-.44-4.32-.93c0 .07 2.6-2.67 2.83.3" fill-rule="evenodd" stroke="#000" stroke-linecap="square"/><path transform="matrix(1.0965 0 0 1.1036 218.26 166.75)" d="M302.66 436.88a33.59 33.59 0 0 0-.91 1.81c-1.07 2.35-1.41 4.54.47 8.07 0 0-1.62-.11-2.59-2.83-.49-1.36-.81-3.37-.7-6.35.03-.74.09-1.54.18-2.41" fill="#fff" fill-rule="evenodd" stroke="#000"/><path transform="matrix(1.0965 0 0 1.1036 218.26 166.75)" d="M230.71 419.11s-1.55-6.16 2.09-13.01" fill="none" stroke="#000"/></g><g fill="#e7ca00" stroke="#000" stroke-width=".76"><path transform="matrix(.10666 -1.3695 1.2391 .11788 -328.6 1285.3)" d="M401.42 879.46c-2.05-1.52-4.03-6.25-3.27-8.84-2.7-2.22-9.66 2.18-6.28 8.58 3.35 6.4 7.99 5.85 9.57.27l-.02-.01zm19.1 6c.56-3.6-.69-9.66-6.93-10.74-6.24-1.07-8.16 4.55-6.96 10.32 4.5-3.4 11.62-1.68 13.89.43z"/><path transform="matrix(.10666 -1.3695 1.2391 .11788 -328.6 1285.3)" d="M407.42 882.05c1.06-4.78 5.83-6.08 10.57-5.6-2.96-3.37-6.05-8.82-10.27-5.64-3.32 2.5-5.62 6.15-.3 11.22v.02z"/><path transform="matrix(.10666 -1.3695 1.2391 .11788 -328.6 1285.3)" d="M404.77 879.34c.56-3.6 2.02-8.45 5.93-10.43-3.37-3.05-11.69-2.13-12.3 4.1-.63 6.23 3.04 7.5 6.38 6.3v.03zm-15.88 40.04c5.28.85 12.28-1.8 10.3-13.71-1.87-11.3-10.19-14.04-10.81-11.35 4.77 1.67 4.15 17.65.47 25.1l.04-.04z"/><path transform="matrix(.10666 -1.3695 1.2391 .11788 -328.6 1285.3)" d="M396.76 918.12c5.3.95 13.71-2.13 9.91-13.82-3.7-11.46-12.22-10.05-12.8-7.16 4.77 1.84 6.5 13.04 2.87 21l.03-.02z"/><path transform="matrix(.10666 -1.3695 1.2391 .11788 -328.6 1285.3)" d="M376.73 918.17c3.86 3.45 13.82 4.69 17.01-6.83 3.01-10.9.28-14.41-3.62-16.18 1.95 5.67-5.07 21.66-13.4 22.99v.02zm25.42-.97c3.26-1.82 10.61-5.08 5.8-16.07-3.93-8.97-10.08-5.15-11.75-3.6 4.31 1.8 8.14 11.49 5.95 19.67z"/><path transform="matrix(.10666 -1.3695 1.2391 .11788 -328.6 1285.3)" d="M409.22 914.63c3.05-2.06 10.72-7.1 4.57-17.83-6.09-10.54-14.2-3.54-14.21-.65 3.56.89 9.64 9.96 9.67 18.46l-.03.02z"/><path transform="matrix(.10666 -1.3695 1.2391 .11788 -328.6 1285.3)" d="M416.72 907.26c2.01-2.8 7.17-9.72-.7-16.79a6.72 6.72 0 0 0-12.05 4.29c3.2-.45 10.6 5.25 12.77 12.52l-.02-.02z"/><path transform="matrix(.10666 -1.3695 1.2391 .11788 -328.6 1285.3)" d="M421.18 896.28c.56-3.62 2.04-12.63-7.04-14.7-8.9-2.04-9.57 8.6-8.07 10.42 2.4-2.18 10.56-1.08 15.1 4.28zm-50.29 18.64c3.38 4.15 13.41 7.06 18.66-4.14 4.96-10.67 2.77-14.71-.95-17.15 1.01 6.12-8.91 21.32-17.72 21.32l.01-.03z"/><path transform="matrix(.10666 -1.3695 1.2391 .11788 -328.6 1285.3)" d="M360.85 906.7c3.23 6.56 19.29 14.06 25.52 1.93 5.92-11.5 1.01-22.08-3.9-26.14 2.33 11.77-12.1 29.73-21.62 24.18v.03z"/><path transform="matrix(.10666 -1.3695 1.2391 .11788 -328.6 1285.3)" d="M352.37 898.4c7.86 17.16 24.13 14.15 29.64 1.7 5.23-11.83 3.75-18.77-2.17-24.43-4.1 15.2-12.2 23.74-27.5 22.7l.03.03z"/><path transform="matrix(.10666 -1.3695 1.2391 .11788 -328.6 1285.3)" d="M341.92 884.06c5.96 21.48 27.14 18.88 36.13 6.54 6.36-8.7 4.12-15.14.9-18.94-6.95 8.22-18.97 15.54-37.06 12.37l.03.03z"/><path transform="matrix(.10666 -1.3695 1.2391 .11788 -328.6 1285.3)" d="M337.98 870.93c.63 21.92 26.07 24.33 37.37 11.8 7.99-8.85 7.37-15.43 5.23-19.31-8.43 8.34-25.24 18.38-42.63 7.49l.03.02z"/><path transform="matrix(.10666 -1.3695 1.2391 .11788 -328.6 1285.3)" d="M332.7 850.2c-3.87 28.35 29.13 37.62 43.47 20.69 7.7-9.07 7.33-15.43 5.2-19.31-14.3 10.02-39.16 11.18-48.7-1.38h.03z"/><path transform="matrix(.10666 -1.3695 1.2391 .11788 -328.6 1285.3)" d="M329.46 823.53c-9.49 30.63 19.29 41.58 38.05 38.53 14.85-2.4 23.2-19.89 21.1-23.74-18.56 13.09-55.38 1.82-59.17-14.76l.02-.03z"/><path transform="matrix(.10666 -1.3695 1.2391 .11788 -328.6 1285.3)" d="M329.06 799.67c-12.68 29.9 15.36 47.45 38.58 45.69 15.22-1.15 27.76-7.06 27.2-19.55-22.74 8.01-58.21-5.43-65.8-26.14h.02z"/><path transform="matrix(.10666 -1.3695 1.2391 .11788 -328.6 1285.3)" d="M329.97 774.93c-12.7 30.58 14.74 55.71 43.46 56.34 14.65.32 21.34-3.6 27.2-13.3-20.73 3.53-64.9-27.94-70.66-43.04z"/><path transform="matrix(.10666 -1.3695 1.2391 .11788 -328.6 1285.3)" d="M329.57 765.27c-11.33 35.92 80.31 80.42 85 33.7-21.92 11.49-81.76-20.66-85-33.7z"/><path transform="matrix(.10666 -1.3695 1.2391 .11788 -328.6 1285.3)" d="M327.52 755.6c-15.38 19.76 93.06 78.17 95.5 28.37-9.75 5-29.86.68-49.26-8.1-19.38-8.8-33.15-22.86-46.23-20.24v-.02z"/><path transform="matrix(.10666 -1.3695 1.2391 .11788 -328.6 1285.3)" d="M310.96 751.12c19.62.48 61.38 30.94 89.3 36.03 17.88 3.25 32.46-4.2 24.15-35.54-28.49 29.11-82.92-17.83-111.77-6.77-2.97-1.4.62 8.35-1.65 6.28h-.03z"/><path transform="matrix(.10666 -1.3695 1.2391 .11788 -328.6 1285.3)" d="M314.74 755.54c19-11.8 58.33 10.08 86.15 11.27 17.08.7 38.39-18.62 24.4-47.05-21.87 37.6-82.88 7.5-108.6 27.33-1.92 4.3-.85 10-1.98 8.43l.03.02z"/><path transform="matrix(.10666 -1.3695 1.2391 .11788 -328.6 1285.3)" d="M307.1 756.76c20.24-14.78 61.57-6.2 88.05-8.34 17.58-1.45 43.75-32.01 19.8-57.48-14.85 53.84-64.47 27.23-107.26 58.26-2.12 5.47.8 8.86-.59 7.53v.03z"/><path transform="matrix(.10666 -1.3695 1.2391 .11788 -328.6 1285.3)" d="M314.38 751.97c16.66-15.72 57.6-14.67 81.93-27.07 16.32-8.3 32.87-43.64 4.39-61.42-2.97 56.71-55.19 38.97-87.46 80.94-.78 6.01 2.74 8.47 1.12 7.55h.02z"/><path transform="matrix(.10666 -1.3695 1.2391 .11788 -328.6 1285.3)" d="M316.13 744.46c12.35-22.09 50.3-27.61 70.82-46 18.35-16.44 23.32-46.35-7.63-55.9-2.63 59.2-43.85 46.68-60.74 82.26-3.21 7.82-1.53 20.49-2.45 19.67v-.03z"/><path transform="matrix(.10666 -1.3695 1.2391 .11788 -328.6 1285.3)" d="M325.5 721.91c12.66-20.09 22.17-13.18 42.36-33.82 17.38-17.77 22.62-60.36-7.8-61.34 4.55 51.45-15.24 52-29.13 79.62.5 6.14-3.66 15.96-5.4 15.54h-.03z"/><g stroke-width="1.01"><path transform="matrix(.07264 -1.1223 .85995 .11455 -72.94 1184.8)" d="m310.42 602.66-10.5 5.67L250 762.09l18.14 40.07 17.14 2.47 20.72-1.52 30.73-138.48 8.67-56.41-21.06-12.41-13.91 6.85z" fill-rule="evenodd"/><path transform="matrix(.07264 -1.1223 .85995 .11455 -72.94 1184.8)" d="M309.26 597.47c.42 2.04.86 4.1 1.3 6.14 9.83-6.84 20.43-.17 23.34 15.64 2.9 15.8-3.03 38.86-13.67 56.63-6.68 14.63-14.64 32.23-16.98 56.25-1.83 18.77 1.85 41.71-2.29 62.6-2.52 10-7.85 9.09-18.2 8.45 4.17 6.83 9.34 10.58 16.04 10.36 14.42-3.2 24.74-16.16 28.5-44.84-4.29-23.95-3.2-47.94 9.85-72.08 11.63-11.99 22.33-25.54 26.26-49.99 1.89-12.14-.47-25.2-9.61-39.04-11.48-17.36-20.81-18-29.61-16.44-4.97 2.07-9.94 4.22-14.93 6.32z"/></g><path transform="matrix(5.6809 1.916 2.3969 -5.529 932.24 5068)" d="M-325.66 629.66c0-3.09 2.01-5.59 4.49-5.59 2.48 0 4.49 2.5 4.49 5.59h-8.98z" fill-rule="evenodd" stroke-width=".17"/><path transform="matrix(.10666 -1.3729 1.2391 .07826 -322.34 1292.4)" d="M295.5 723.04c-3.8 7.23-11.3 10.6-16.73 7.42-5.4-3.16-6.68-11.68-2.92-18.97 3.8-7.26 11.3-10.59 16.73-7.42 5.4 3.16 6.69 11.69 2.92 18.97zm-18.94-81.97c-2.6-3.58-6.33-5.81-10.32-5.1-2.38.41-4.72 1.87-6.67 3.93-.08-.34-.16-.67-.2-1.01-1.4-7.71 4.79-16.77 11.4-17.96 2.95-.5 5.78.56 8.1 2.67a15.2 15.2 0 0 0-1.25 8.8 15.22 15.22 0 0 0 1.07 3.6 18.32 18.32 0 0 0-2.1 5.06h-.03z"/><path transform="matrix(.10666 -1.3729 1.2391 .07826 -322.34 1292.4)" d="M300.3 632.44c-2.85-3.63-6.74-5.87-11-5.27-4.03.57-8 3.66-10.68 7.77a18.77 18.77 0 0 1-1.13-4.15c-1.38-8.95 6.04-19.14 13.72-20.22a9.82 9.82 0 0 1 5.54.83 15.64 15.64 0 0 0 .07 4.02 18.25 18.25 0 0 0 5.04 10.15 18.62 18.62 0 0 0-1.56 6.84v.03zm-42.25 44.93-.45.64a14.5 14.5 0 0 1-8.53-4.74 13.44 13.44 0 0 0 8.97 4.08v.02zm6.7-13.62c-4.08-2.3-7.24-6.8-8.09-12.29-1.33-8.67 5.86-18.57 13.3-19.61a9.12 9.12 0 0 1 2.19-.05c-2.66 3.71-4.22 8.47-3.54 12.92.44 2.87 1.5 5.48 3.06 7.65a20.84 20.84 0 0 0-6.9 11.35l-.01.03z"/><path transform="matrix(.10666 -1.3729 1.2391 .07826 -322.34 1292.4)" d="M258.33 689.2c-2 .6-4.08.4-5.87-.78-4.37-2.9-5.54-10.5-2.6-16.94 2.95-6.42 8.95-9.31 13.35-6.4a9.3 9.3 0 0 1 3.58 5.14 7.54 7.54 0 0 0-5.38.38c-4.7 2.16-7.13 8.6-5.42 14.33a11.05 11.05 0 0 0 2.35 4.3v-.03z"/><path transform="matrix(.10666 -1.3729 1.2391 .07826 -322.34 1292.4)" d="M262.4 693.96c-3.07-.95-5.82-3.46-7.42-7.23-2.95-6.98-.85-15.61 4.77-19.25a9.58 9.58 0 0 1 8.97-.86 17.46 17.46 0 0 0 1.1 9.65 12.66 12.66 0 0 0 6.2 6.75 9.6 9.6 0 0 0-7.76 1.26c-3.12 2.03-5.16 5.62-5.85 9.62l-.02.06zm-5.12 49.45c-7.01-4.48-11.34-13.99-9.67-21.12 1.4-5.98 6.67-8.44 12.49-6.4a25.87 25.87 0 0 0-1.44 18.2c1.49 5.23 4.47 9.2 8.07 11.41-2.76.65-6.11.05-9.43-2.1h-.02z"/><path transform="matrix(.10666 -1.3729 1.2391 .07826 -322.34 1292.4)" d="M251.67 769.94a12.34 12.34 0 0 1-.91-1c-5.64-6.45-7.08-16.8-3.22-22.97 3.62-5.8 10.68-5.96 16.22-.65-2.97 6.52-2.26 15.33 1.63 22.2a11.86 11.86 0 0 0-10.34.13 14.1 14.1 0 0 0-3.35 2.28h-.03z"/><path transform="matrix(.10666 -1.3729 1.2391 .07826 -322.34 1292.4)" d="M268.08 783.81c-5.38-.3-10.72-6.3-12.47-14.48-1.95-9.16 1.3-17.67 7.28-18.91l.26-.04c2.88 4.72 7.19 7.53 11.73 7.72.04.05.07.1.1.19-6.71 4.63-9.85 15.33-7.05 25l.15.52zm-2.87-66.22c-6.59 2.1-14.44-2.68-17.47-10.68-3-8-.11-16.28 6.5-18.4 1.7-.52 3.48-.6 5.26-.33 1.52 4.76 4.28 8.46 7.62 10.57a26 26 0 0 0 .9 17.41 10.8 10.8 0 0 1-2.82 1.4v.03z"/><path transform="matrix(.10666 -1.3729 1.2391 .07826 -322.34 1292.4)" d="M269.95 727.88c-7.02-4.5-11.36-13.99-9.68-21.12 1.68-7.1 8.77-9.26 15.78-4.75a21.46 21.46 0 0 1 5.37 5.02c-4.18 5.42-5.77 13.84-3.54 21.6.13.5.3 1.02.48 1.51-2.54.33-5.48-.37-8.41-2.26z"/><path transform="matrix(.10666 -1.3729 1.2391 .07826 -322.34 1292.4)" d="M284.7 750.89c-3.68 7.63-11.19 10.5-16.7 6.35-5.5-4.12-6.95-13.72-3.29-21.38 3.68-7.63 11.19-10.5 16.7-6.35 5.5 4.11 6.95 13.71 3.29 21.38zm-9.27-47.75c-3.78 1.89-7.9 2.15-11.27.36-6.17-3.36-7.58-12.5-3.14-20.38 3.15-5.53 8.39-9 13.4-9.38a9.73 9.73 0 0 0 7.87 2.57c.17.14.34.32.5.5-7.95 3.42-12.17 13.33-9.42 22.05a16.01 16.01 0 0 0 2.04 4.26l.02.02z"/><path transform="matrix(.10666 -1.3729 1.2391 .07826 -322.34 1292.4)" d="M284.18 666.04c1.22 7.9-4.12 15.27-10.45 16.17-6.3.88-12.47-4.84-13.69-12.77-.86-5.6 1.87-11.7 5.8-15.1 2.62 4.34 6.94 6.95 11.39 6.32 1.6-.22 3.15-.84 4.56-1.82a23.14 23.14 0 0 1 2.37 7.2h.02z"/><path transform="matrix(.10666 -1.3729 1.2391 .07826 -322.34 1292.4)" d="M287.2 705.73c-5.67 2.92-12.19-1.4-14.47-9.67-2.29-8.27.45-17.43 6.14-20.39a7.98 7.98 0 0 1 5.4-.73 25.5 25.5 0 0 0-1.66 3.54c-3.4 9.1-1.72 20.05 3.75 24.34.9.71 1.86 1.21 2.86 1.47a9.94 9.94 0 0 1-2 1.4l-.02.04z"/><path transform="matrix(.10666 -1.3729 1.2391 .07826 -322.34 1292.4)" d="M304.5 667.95c.43 2.76-.02 5.46-1.08 7.86-5.2-3.18-12.15.01-15.9 7.24-4.17-1.8-7.53-6.13-8.36-11.53-1.18-7.68 5.12-16.42 11.7-17.46.03.34.08.67.13 1.01 1.15 7.44 7.1 12.9 13.47 12.43l.06.42-.02.03z"/><path transform="matrix(.10666 -1.3729 1.2391 .07826 -322.34 1292.4)" d="M303.51 696.66c-4.26 9.22-12.87 13.37-19.2 9.2-6.28-4.15-7.97-15.1-3.72-24.35 4.26-9.22 12.87-13.37 19.2-9.2 6.29 4.15 7.97 15.1 3.72 24.35zm-14.13-41.44a14.76 14.76 0 0 1-6.35 6.88c-6.28 3.15-13.95-.31-17.06-7.75-3.1-7.44.94-18.53 7.22-21.72 2.65-1.35 5.52-1.14 8.18.06l-.08.47c-1.67 9.7 1.94 19.19 8.1 22.06zm31.23-41.08c.4 2.6.03 5.17-.9 7.43-2.48-3.07-5.83-4.95-9.45-4.44-4.33.6-8.59 4.54-10.68 9.37a15.9 15.9 0 0 1-4.37-8.8c-1.2-7.78 5.22-16.62 11.89-17.56 6.64-.93 12.32 6.18 13.52 13.97l-.01.03z"/><path transform="matrix(.10666 -1.3729 1.2391 .07826 -322.34 1292.4)" d="M322.45 630.63c1.01 6.55-3.19 12.75-8.57 14.63-2.38-3.43-5.84-5.65-9.63-5.11a9.62 9.62 0 0 0-2.85.89 15.3 15.3 0 0 1-2.98-7.03c-1.13-7.34 4.95-15.73 11.26-16.62 6.3-.89 11.69 5.86 12.82 13.23h-.05z"/><path transform="matrix(.10666 -1.3729 1.2391 .07826 -322.34 1292.4)" d="M293.23 654.4c-3.1 1.87-6.58 2.1-9.46.23-5.12-3.39-6.49-12.28-3.05-19.78 3.46-7.5 10.46-10.87 15.58-7.48 2.72 1.8 4.37 5.14 4.82 9.04-5.16 3.78-8.97 11.1-7.95 17.73l.04.26h.02zm-36.75 144.27c-5.8 2.08-12.09-2.38-14.38-10.5-2.41-8.64.55-18.23 6.64-21.33 5.7-2.9 12.15.88 14.95 8.45-6.2 4.46-9.27 14.21-7.22 23.35v.03z"/><path transform="matrix(.10666 -1.3729 1.2391 .07826 -322.34 1292.4)" d="M270.6 803.78c-6.26 2.78-13.22-1.1-15.51-8.76-2.3-7.67.94-16.32 7.26-19.22 5.44-2.5 11.41.06 14.43 5.72-5.84 4.71-8.58 13.9-6.18 22.24v.02z"/><path transform="matrix(.10666 -1.3729 1.2391 .07826 -322.34 1292.4)" d="M267.56 817.92c-5.66 2.58-11.97-.9-14.04-7.8a15.88 15.88 0 0 1 1.97-13.3c3.98 3.38 9.07 4.39 13.8 2.08a14.5 14.5 0 0 0 3-1.98 14.32 14.32 0 0 1 1.75 3.78c.71 2.38.82 4.9.44 7.24a20.64 20.64 0 0 0-4.59 8.5c-.7.59-1.49 1.07-2.33 1.48zm8.52 29.36c-6.37 2.9-13.46-1.01-15.8-8.79-2.32-7.75.97-16.5 7.33-19.4.46-.21.96-.39 1.45-.52A26.64 26.64 0 0 0 270 828c2.07 7.17 6.9 11.98 12.3 13.06a13.3 13.3 0 0 1-6.21 6.26v-.03z"/><path transform="matrix(.10666 -1.3729 1.2391 .07826 -322.34 1292.4)" d="M285.17 848.44c-6.13 2.79-12.96-.99-15.2-8.47a17.7 17.7 0 0 1 0-9.94c4.01 3.6 9.24 4.7 14.11 2.35 2.67-1.3 4.9-3.48 6.55-6.21a16.6 16.6 0 0 1 1.6 3.6c2.23 7.47-.93 15.85-7.06 18.67z"/><path transform="matrix(.10666 -1.3729 1.2391 .07826 -322.34 1292.4)" d="M293.14 863.36c-6.14 2.8-12.97-1-15.2-8.47a17.8 17.8 0 0 1-.69-6.2c2.38.42 4.88.09 7.3-1.06 4.17-2.02 7.28-6.25 8.81-11.36 3.03 1.42 5.58 4.4 6.8 8.42 2.24 7.47-.91 15.85-7.05 18.67h.03zm-20.18-77.3c-2.77-1.74-5.05-4.73-6.22-8.6-2.45-8.25 1.01-17.5 7.8-20.6 6.74-3.12 14.3 1.08 16.78 9.33 1.87 6.23.33 13.06-3.47 17.36a10.96 10.96 0 0 0-10.58-.75c-1.64.75-3.1 1.88-4.31 3.26zm46.86-134.41c1.07 6.56-5.47 16.88-12.17 18.3-6.69 1.43-10.88-1.83-13.94-6.18-3.07-4.36-4.28-10.02-2.61-15.2s6.08-10.36 10.44-12.27c4.35-1.92 7.37-1.17 10.92 1.74 3.54 2.91 6.3 7.05 7.36 13.6z"/><path transform="matrix(.10666 -1.3729 1.2391 .07826 -322.34 1292.4)" d="M285.16 808.6c-6.13 2.78-12.97-1-15.2-8.47-2.23-7.48.92-15.85 7.05-18.68 6.13-2.79 12.96 1 15.2 8.44 2.23 7.48-.92 15.86-7.05 18.68v.03z"/><path transform="matrix(.10666 -1.3729 1.2391 .07826 -322.34 1292.4)" d="M283.13 834.2c-6.04 2.73-12.81-1-15-8.36-2.2-7.37.9-15.66 6.95-18.43 6.05-2.78 12.81.96 15.01 8.34 2.2 7.37-.89 15.66-6.96 18.44z"/></g><path d="m491.6 464.19-1.98 2.43-79.06 98.44-1.72 2.16 2 1.9c25.4 24.2 40.11 65.36 40.16 98.41.06 42.1-6.79 71.07-15.31 97.72-11.78 36.81-27 69.24-31.69 123.16-3.48 40 10.94 71.18 29.47 93.68s41.08 36.47 54.47 42.78c41.1 19.39 83.52 12.7 125.9 18.13 18.83 2.41 29.2 14.2 38.97 24.56l2.19 2.32 2.19-2.32c9.77-10.37 20.14-22.15 38.97-24.56 42.38-5.42 84.8 1.26 125.9-18.13 13.4-6.31 35.94-20.27 54.47-42.78 18.53-22.5 32.95-53.67 29.47-93.68-4.7-53.92-19.91-86.35-31.69-123.16-8.52-26.65-15.37-55.62-15.31-97.72.05-33.05 14.76-74.22 40.16-98.4l2-1.91-1.72-2.16-79.06-98.43-1.97-2.44-2.35 2.06c-24.26 21.2-52.21 28.85-80.15 27.66-27.94-1.2-55.82-11.38-79.32-25.97l-1.59-.97-1.6.97c-23.5 14.59-51.37 24.77-79.3 25.97-27.95 1.2-55.9-6.46-80.16-27.66l-2.35-2.06zm.84 8.5c24.9 20.68 53.6 28.43 81.9 27.22 27.4-1.18 54.4-10.55 77.66-24.13V764H442.34c8.19-26.17 14.72-55.32 14.66-96.47-.05-33.93-14.39-74.86-40.13-100.72l75.57-94.12zm325.12 0 75.57 94.12c-25.74 25.86-40.08 66.8-40.13 100.72-.06 41.15 6.47 70.3 14.66 96.47H658V475.78c23.25 13.58 50.25 22.95 77.66 24.13 28.3 1.21 57-6.54 81.9-27.22zM440.41 770h429.18c11.75 36 25.92 67.3 30.41 118.9 3.34 38.33-10.32 67.79-28.1 89.38-17.77 21.6-39.76 35.2-52.4 41.16-39.17 18.47-80.63 12.06-124.1 17.62-19.53 2.5-31.1 14.2-40.4 24.1-9.3-9.9-20.87-21.6-40.4-24.1-43.47-5.56-84.93.85-124.1-17.62-12.64-5.96-34.63-19.56-52.4-41.16-17.78-21.6-31.44-51.05-28.1-89.37 4.5-51.6 18.66-82.91 30.4-118.91z" fill="#e7ca00" stroke="#000"/></svg>
